
<svg width="351px" height="88px" viewBox="0 0 351 88" version="1.1" xmlns="http://www.w3.org/2000/svg" xmlns:xlink="http://www.w3.org/1999/xlink">
    <g id="Page-1" stroke="none" stroke-width="1" fill="none" fill-rule="evenodd">
        <g id="Desktop" transform="translate(-121.000000, -60.000000)" fill="#FFFFFF">
            <g id="Group-2" transform="translate(121.000000, 59.000000)">
                <g id="Group">
                    <polygon id="Fill-2" points="118.2044 56.5096999 123.2334 56.5096999 119.1324 77.5774941 121.6114 77.7404538 121.2484 79.6589798 113.7064 79.6589798 114.0694 77.7404538 116.6154 77.5774941 120.3204 58.5941848 117.8394 58.4292256"></polygon>
                    <g id="Group-19" transform="translate(125.000000, 52.577372)">
                        <path d="M6.153,27.3445433 C3.86,27.3445433 2.269,26.8756591 1.384,25.9408901 C0.499,25.0041216 0.242,23.5674766 0.617,21.622957 L1.926,14.8136396 C2.302,12.8691201 3.118,11.4264766 4.378,10.4947068 C5.636,9.55793827 7.427,9.09005388 9.745,9.09005388 C12.089,9.09005388 13.7,9.55793827 14.573,10.4947068 C15.445,11.4284761 15.696,12.8691201 15.32,14.8136396 L14.423,19.4874847 L3.908,19.4874847 L3.572,21.28704 C3.347,22.5087382 3.454,23.383522 3.89,23.9233886 C4.328,24.4572567 5.255,24.7261902 6.677,24.7261902 C8.248,24.7261902 9.71,24.3512829 11.057,23.6024679 L11.729,21.3230312 L13.897,21.3230312 L13.15,25.1380885 C10.979,26.6067256 8.648,27.3445433 6.153,27.3445433 Z M4.396,16.9821038 L12.028,16.9821038 L12.401,15.1485568 C12.626,13.9268587 12.518,13.0430771 12.083,12.4942127 C11.647,11.9453483 10.704,11.6694165 9.26,11.6694165 C7.812,11.6694165 6.759,11.9453483 6.098,12.4942127 C5.437,13.0430771 4.994,13.9268587 4.769,15.1485568 L4.396,16.9821038 Z" id="Fill-3"></path>
                        <path d="M31.8216,24.7255904 L34.6246,24.9125442 L34.2116,27.0800086 L28.5256,27.0800086 L28.8626,25.2474614 C27.1676,26.6441163 25.2836,27.3429437 23.2136,27.3429437 C21.4916,27.3429437 20.2016,26.9050519 19.3406,26.0312678 C18.4816,25.1584834 18.2246,23.8018187 18.5746,21.9532754 L20.0346,14.472124 C20.3836,12.630579 21.1646,11.270915 22.3726,10.3981307 C23.5796,9.52434657 25.0346,9.08945403 26.7316,9.08945403 C28.7756,9.08945403 30.3956,9.80027838 31.5926,11.2199276 L31.9686,9.3513893 L34.8106,9.3513893 L31.8216,24.7255904 Z M29.4636,22.1812191 L30.9986,14.2511786 C29.7766,12.5565973 28.1906,11.7108063 26.2456,11.7108063 C24.3736,11.7108063 23.2396,12.7465504 22.8416,14.8130397 L21.5326,21.6233569 C21.1096,23.6898463 21.8426,24.7255904 23.7396,24.7255904 C25.6346,24.7255904 27.5426,23.8758004 29.4636,22.1812191 Z" id="Fill-5"></path>
                        <path d="M50.9022,0.899477742 L56.5892,0.899477742 L51.9512,24.7265901 L54.7952,24.9135439 L54.3812,27.0820081 L48.6972,27.0820081 L49.0342,25.2474614 C47.3382,26.6441163 45.4532,27.3439434 43.3842,27.3439434 C41.6632,27.3439434 40.3732,26.9070514 39.5122,26.0322675 C38.6512,25.1594832 38.3962,23.8038182 38.7442,21.9552749 L40.2042,14.4751232 C40.5542,12.6335783 41.3342,11.2739143 42.5422,10.4011299 C43.7522,9.52734583 45.2062,9.09145353 46.8992,9.09145353 C48.9472,9.09145353 50.5652,9.80127814 51.7642,11.2219271 L53.2992,3.25689523 L50.4552,3.06894167 L50.9022,0.899477742 Z M49.6292,22.1812191 L51.1662,14.2511786 C49.9452,12.5565973 48.3592,11.7108063 46.4132,11.7108063 C44.5402,11.7108063 43.4072,12.7465504 43.0082,14.8130397 L41.6992,21.6233569 C41.2752,23.6898463 42.0112,24.7265901 43.9052,24.7265901 C45.8002,24.7255904 47.7092,23.8758004 49.6292,22.1812191 Z" id="Fill-7"></path>
                        <path d="M59.5452,9.35438856 L65.2322,9.35438856 L62.2402,24.7255904 L65.0462,24.9125442 L64.6342,27.0790089 L56.1032,27.0790089 L56.5162,24.9125442 L59.3992,24.7255904 L61.9402,11.7108063 L59.1342,11.5228527 L59.5452,9.35438856 Z M63.8122,1.31137596 C64.2852,0.861487129 64.8352,0.639541971 65.4562,0.639541971 C65.9292,0.639541971 66.3182,0.793503928 66.6192,1.10742636 C66.9142,1.41734978 67.0642,1.81025269 67.0642,2.28313584 C67.0642,2.88298762 66.8262,3.40485867 66.3532,3.85374775 C65.8822,4.30563609 65.3332,4.52758125 64.7072,4.52758125 C64.2332,4.52758125 63.8452,4.36862053 63.5492,4.05969686 C63.2482,3.7507732 63.0992,3.35986979 63.0992,2.88298762 C63.1012,2.28313584 63.3382,1.7612648 63.8122,1.31137596 Z" id="Fill-9"></path>
                        <path d="M70.3206,9.35438856 L76.0826,9.35438856 L75.7116,11.2579182 C77.4786,9.81627443 79.3616,9.09345304 81.3576,9.09345304 C83.0546,9.09345304 84.3376,9.53034508 85.2106,10.4021297 C86.0816,11.274914 86.3476,12.6335783 85.9986,14.4771228 L84.0116,24.7255904 L86.7806,24.9135439 L86.3696,27.0820081 L77.8396,27.0820081 L78.2506,24.9135439 L81.1316,24.7255904 L83.0756,14.8150393 C83.4746,12.7495496 82.7266,11.7128058 80.8306,11.7128058 C78.8866,11.7128058 76.9786,12.5735931 75.1076,14.2921685 L73.0896,24.7275899 L75.9716,24.9145437 L75.5586,27.0830079 L66.8776,27.0830079 L67.2906,24.9145437 L70.2476,24.7275899 L72.7906,11.7138056 L69.9086,11.5248522 L70.3206,9.35438856 Z" id="Fill-11"></path>
                        <path d="M90.6006,32.0538796 C92.3216,33.2265898 93.9946,33.8164441 95.6126,33.8164441 C96.9846,33.8164441 98.0076,33.533514 98.6806,32.9736523 C99.3556,32.4117912 99.8036,31.5310088 100.0276,30.336304 L101.0026,25.2495609 C99.3016,26.6462158 97.4356,27.3450431 95.3896,27.3450431 C93.6676,27.3450431 92.3786,26.9071513 91.5196,26.034367 C90.6576,25.1605829 90.4036,23.8049179 90.7496,21.9563747 L92.2126,14.4752232 C92.5626,12.6336783 93.3416,11.275014 94.5496,10.4022296 C95.7616,9.5274458 97.2116,9.09255326 98.9086,9.09255326 C100.9286,9.09255326 102.5506,9.80337762 103.7716,11.2230268 L104.1086,9.35448854 L109.7956,9.35448854 L109.3846,11.5229527 L106.5026,11.7099065 L102.7976,30.7062126 C102.0506,34.5232694 99.5206,36.4317978 95.2046,36.4317978 C92.5106,36.4317978 90.3906,35.7069769 88.8426,34.2623339 L90.6006,32.0538796 Z M101.6356,22.1813191 L103.1726,14.2512786 C101.9506,12.5566973 100.3636,11.7109063 98.4196,11.7109063 C96.5476,11.7109063 95.4126,12.7466503 95.0146,14.8131397 L93.7036,21.6234569 C93.2816,23.6899463 94.0166,24.7256904 95.9116,24.7256904 C97.7846,24.7256904 99.6946,23.8759003 101.6356,22.1813191 Z" id="Fill-13"></path>
                        <path d="M133.0662,24.7255904 L135.8702,24.9125442 L135.4582,27.0800086 L129.7712,27.0800086 L130.1082,25.2474614 C128.4142,26.6441163 126.5282,27.3429437 124.4582,27.3429437 C122.7382,27.3429437 121.4482,26.9050519 120.5902,26.0312678 C119.7272,25.1584834 119.4722,23.8018187 119.8232,21.9532754 L121.2812,14.472124 C121.6332,12.630579 122.4112,11.270915 123.6212,10.3981307 C124.8292,9.52434657 126.2832,9.08945403 127.9802,9.08945403 C130.0202,9.08945403 131.6432,9.80027838 132.8422,11.2199276 L133.2172,9.3513893 L136.0582,9.3513893 L133.0662,24.7255904 Z M130.7092,22.1812191 L132.2432,14.2511786 C131.0212,12.5565973 129.4372,11.7108063 127.4892,11.7108063 C125.6182,11.7108063 124.4832,12.7465504 124.0852,14.8130397 L122.7762,21.6233569 C122.3532,23.6898463 123.0892,24.7255904 124.9852,24.7255904 C126.8782,24.7255904 128.7862,23.8758004 130.7092,22.1812191 Z" id="Fill-15"></path>
                        <path d="M152.1486,0.899477742 L157.8346,0.899477742 L153.1966,24.7265901 L156.0366,24.9135439 L155.6266,27.0820081 L149.9396,27.0820081 L150.2766,25.2474614 C148.5826,26.6441163 146.6976,27.3439434 144.6256,27.3439434 C142.9056,27.3439434 141.6146,26.9070514 140.7566,26.0322675 C139.8946,25.1594832 139.6386,23.8038182 139.9876,21.9552749 L141.4496,14.4751232 C141.7986,12.6335783 142.5796,11.2739143 143.7876,10.4011299 C144.9986,9.52734583 146.4496,9.09145353 148.1486,9.09145353 C150.1906,9.09145353 151.8126,9.80127814 153.0116,11.2219271 L154.5446,3.25689523 L151.7026,3.06894167 L152.1486,0.899477742 Z M150.8736,22.1812191 L152.4086,14.2511786 C151.1876,12.5565973 149.6046,11.7108063 147.6586,11.7108063 C145.7876,11.7108063 144.6526,12.7465504 144.2526,14.8130397 L142.9416,21.6233569 C142.5206,23.6898463 143.2566,24.7265901 145.1506,24.7265901 C147.0456,24.7255904 148.9546,23.8758004 150.8736,22.1812191 Z" id="Fill-17"></path>
                    </g>
                    <polygon id="Fill-20" points="292.6004 64.1006242 289.7194 64.2885777 292.1124 75.7697408 300.3814 61.93216 305.3184 61.93216 304.9104 64.1006242 301.8794 64.3245688 292.7094 79.6577801 290.0184 79.6577801 286.8014 64.3245688 283.8834 64.1006242 284.2954 61.93216 293.0104 61.93216"></polygon>
                    <g id="Group-37" transform="translate(0.000000, 0.590217)">
                        <path d="M307.565,61.3415427 L313.252,61.3415427 L310.261,76.7127445 L313.065,76.8996983 L312.655,79.066163 L304.125,79.066163 L304.534,76.8996983 L307.417,76.7127445 L309.961,63.6979604 L307.156,63.5100069 L307.565,61.3415427 Z M311.83,53.2985301 C312.304,52.8486413 312.853,52.6266961 313.479,52.6266961 C313.95,52.6266961 314.338,52.7806581 314.636,53.0945805 C314.935,53.4045039 315.087,53.7974068 315.087,54.27029 C315.087,54.8701418 314.848,55.3920128 314.374,55.8409019 C313.9,56.2927902 313.354,56.5147354 312.729,56.5147354 C312.256,56.5147354 311.868,56.3557747 311.571,56.046851 C311.271,55.7379273 311.119,55.3470239 311.119,54.8701418 C311.118,54.27029 311.359,53.7484189 311.83,53.2985301 Z" id="Fill-21"></path>
                        <path d="M323.168,79.3316974 C320.974,79.3316974 319.44,78.863813 318.567,77.9280442 C317.693,76.9912757 317.445,75.5546307 317.818,73.6111109 L319.129,66.8007937 C319.851,62.9847367 322.409,61.0802073 326.796,61.0802073 C329.039,61.0802073 330.593,61.5520907 331.455,62.4988567 C332.315,63.4486221 332.546,64.8822678 332.146,66.8007937 L331.959,67.7005714 L328.969,69.0442394 L329.34,67.1387103 C329.566,65.9390067 329.46,65.0672221 329.024,64.5203572 C328.587,63.9704931 327.687,63.6965608 326.311,63.6965608 C324.943,63.6965608 323.932,63.9704931 323.281,64.5203572 C322.636,65.0672221 322.197,65.9390067 321.973,67.1387103 L320.776,73.2721947 C320.552,74.4928931 320.65,75.3736754 321.075,75.9085433 C321.501,76.4444108 322.411,76.7133444 323.805,76.7133444 C325.229,76.7133444 326.711,76.3274397 328.261,75.5546307 L329.159,72.186463 L331.327,72.186463 L330.39,77.1232431 C328.215,78.5938797 325.812,79.3316974 323.168,79.3316974" id="Fill-23"></path>
                        <path d="M341.2766,79.3316974 C338.9806,79.3316974 337.3896,78.8628133 336.5066,77.9280442 C335.6226,76.9912757 335.3656,75.5546307 335.7396,73.6101112 L337.0506,66.8007937 C337.4256,64.8562742 338.2416,63.4136307 339.4996,62.4818609 C340.7596,61.5450924 342.5476,61.077208 344.8666,61.077208 C347.2126,61.077208 348.8206,61.5450924 349.6966,62.4818609 C350.5666,63.4156302 350.8176,64.8562742 350.4446,66.8007937 L349.5466,71.4746389 L339.0316,71.4746389 L338.6946,73.2741942 C338.4726,74.4958923 338.5796,75.3706762 339.0166,75.9105428 C339.4536,76.4444108 340.3796,76.7133444 341.8026,76.7133444 C343.3726,76.7133444 344.8336,76.338437 346.1786,75.5896221 L346.8526,73.3101853 L349.0246,73.3101853 L348.2736,77.1252426 C346.1026,78.5938797 343.7716,79.3316974 341.2766,79.3316974 Z M339.5176,68.9692579 L347.1506,68.9692579 L347.5256,67.135711 C347.7476,65.9140129 347.6406,65.0302312 347.2056,64.4813669 C346.7716,63.9325025 345.8286,63.6565707 344.3826,63.6565707 C342.9376,63.6565707 341.8816,63.9325025 341.2206,64.4813669 C340.5606,65.0302312 340.1196,65.9140129 339.8916,67.135711 L339.5176,68.9692579 Z" id="Fill-25"></path>
                        <path d="M0.2,1.12472208 L22.102,1.12472208 L22.102,8.23196591 L13.444,8.23196591 L13.444,26.6274205 C13.444,28.0240753 14.02,28.9208538 15.166,29.3187554 C16.313,29.7196564 18.135,29.9176075 20.628,29.9176075 L20.628,36.588959 L17.563,36.588959 C13.621,36.588959 10.589,35.9031285 8.468,34.5314674 C6.349,33.1588066 5.289,30.5524506 5.289,26.7123995 L5.289,8.23196591 L0.201,8.23196591 L0.2,1.12472208 Z" id="Fill-27"></path>
                        <path d="M34.8476,22.4483531 L34.8476,24.6168173 C34.8476,26.4643607 35.2696,27.8340223 36.1206,28.7308007 C36.9666,29.6305784 38.4396,30.0794675 40.5336,30.0794675 C42.9776,30.0794675 45.0986,29.8065349 46.8956,29.2546713 L47.1196,25.2626577 L54.0166,25.2626577 L54.0166,32.8487832 C51.8736,34.294426 50.4516,35.3681606 48.2806,36.0649885 C46.1096,36.7648155 43.4286,37.1127296 40.2356,37.1127296 C31.1536,37.1127296 26.6136,33.1477093 26.6136,25.2156693 L26.6136,12.4978118 C26.6136,8.40782246 27.7366,5.39956579 29.9816,3.48103985 C32.2266,1.5605144 35.7936,0.600751556 40.6846,0.600751556 C45.6246,0.600751556 49.2146,1.58550823 51.4606,3.55502157 C53.7056,5.52653441 54.0906,8.506798 54.0906,12.4978118 L54.0906,22.4483531 L34.8476,22.4483531 Z M34.8476,15.415091 L46.5966,15.415091 L46.5966,13.0966639 C46.5966,11.2511199 46.1586,9.87845907 45.2866,8.98268041 C44.4136,8.08290274 42.8796,7.63401366 40.6846,7.63401366 C38.4896,7.63401366 36.9676,8.08290274 36.1216,8.98268041 C35.2706,9.87945882 34.8486,11.2511199 34.8486,13.0966639 L34.8476,15.415091 Z" id="Fill-29"></path>
                        <path d="M78.4706,29.1438986 C79.1206,28.7709908 79.4446,28.0351726 79.4446,26.9354443 C79.4446,26.5385424 79.2696,26.1376415 78.9206,25.7397398 C78.5696,25.3388389 78.0726,24.9799275 77.4216,24.6560076 C76.7736,24.3300881 76.1646,24.0551561 75.5896,23.8312114 C75.0166,23.6072667 74.3416,23.3573285 73.5706,23.0823964 C72.7956,22.8074644 72.2576,22.6215103 71.9596,22.5225348 C70.0636,21.7737198 68.5546,21.1018858 67.4316,20.5030338 C66.3096,19.9021822 65.1606,19.1283734 63.9896,18.1816074 C62.8166,17.2328418 61.9576,16.1011215 61.4086,14.7774485 C60.8596,13.4557751 60.5856,11.89816 60.5856,10.1016039 C60.5856,6.86040482 61.6206,4.46399696 63.6906,2.92037838 C65.7596,1.3727608 69.0166,0.599951754 73.4566,0.599951754 C76.7266,0.599951754 79.3706,0.997853434 81.3896,1.79665605 C82.3556,2.17856168 85.1956,3.54622374 86.8696,4.72793174 L86.8696,11.6912111 L79.1616,11.6912111 L78.8626,8.76693372 C78.1126,8.31704489 75.8766,8.00712147 73.8306,8.00712147 C71.8366,8.00712147 70.5006,8.18207824 69.8286,8.53099202 C69.1536,8.87890605 68.8156,9.57873313 68.8156,10.6244747 C68.8156,11.5722405 69.2526,12.3220553 70.1266,12.8689201 C70.9996,13.4187843 73.2326,14.3415562 76.8226,15.6362363 C81.1156,17.1838539 83.7336,18.3055768 84.6826,19.0044041 C86.6286,20.6010096 87.6256,23.0434061 87.6756,26.3375921 C87.6756,30.2776185 86.6756,33.0579315 84.6826,34.6805306 C82.6866,36.2991306 79.4696,37.1099303 75.0286,37.1099303 C71.3356,37.1099303 69.0036,36.6870348 66.5616,35.8372447 C64.1156,34.990454 61.6946,33.7937497 59.2996,32.2461321 L59.2996,25.1848769 L67.0096,25.1848769 L67.3076,28.2091296 C69.8026,29.2048836 71.8846,29.7027605 75.0286,29.7027605 C76.6726,29.7047601 77.8216,29.5178062 78.4706,29.1438986" id="Fill-31"></path>
                        <path d="M91.8038,1.12472208 L113.7078,1.12472208 L113.7078,8.23196591 L105.0488,8.23196591 L105.0488,26.6274205 C105.0488,28.0240753 105.6258,28.9208538 106.7698,29.3187554 C107.9188,29.7196564 109.7398,29.9176075 112.2338,29.9176075 L112.2338,36.588959 L109.1668,36.588959 C105.2248,36.588959 102.1938,35.9031285 100.0728,34.5314674 C97.9528,33.1588066 96.8928,30.5524506 96.8928,26.7123995 L96.8928,8.23196591 L91.8048,8.23196591 L91.8038,1.12472208 Z" id="Fill-33"></path>
                        <path d="M147.1802,30.3789935 L151.3722,30.6779196 L151.3722,36.5884591 L139.0242,36.5884591 L139.0242,33.2962726 C136.1312,35.8416437 132.9622,37.1103302 129.5172,37.1103302 C126.2742,37.1103302 123.5822,36.1885579 121.4352,34.3440137 C119.2912,32.4994695 118.2182,29.6541726 118.2182,25.8131217 L118.2182,11.8985599 C118.2182,8.05650926 119.3032,5.21321183 121.4742,3.36866761 C123.6452,1.52212389 126.4262,0.600351655 129.8192,0.600351655 C133.2102,0.600351655 136.2792,1.79905546 139.0242,4.19246406 L139.4202,1.12322246 L147.1802,1.12322246 L147.1802,30.3789935 Z M139.0242,25.5151953 L139.0242,12.2724675 C136.0282,9.43016984 133.1362,8.00752137 130.3412,8.00752137 C127.7472,8.00752137 126.4512,9.50415156 126.4512,12.4984117 L126.4512,25.2162691 C126.4512,28.2095295 127.7722,29.7031604 130.4172,29.7031604 C133.2102,29.7031604 136.0792,28.3095048 139.0242,25.5151953 Z" id="Fill-35"></path>
                    </g>
                    <polygon id="Fill-38" points="200.9546 31.267937 200.9546 37.1774768 184.4166 37.1774768 184.4166 31.267937 188.6056 30.9690109 188.6056 7.92570482 184.4166 7.62677868 184.4166 1.7152394 196.7646 1.7152394 196.7646 30.9690109"></polygon>
                    <g id="Group-45" transform="translate(155.000000, 0.590217)">
                        <path d="M68.49,29.1438986 C69.138,28.7709908 69.462,28.0351726 69.462,26.9354443 C69.462,26.5385424 69.288,26.1376415 68.937,25.7397398 C68.588,25.3388389 68.09,24.9799275 67.439,24.6560076 C66.791,24.3300881 66.183,24.0551561 65.609,23.8312114 C65.035,23.6072667 64.358,23.3573285 63.587,23.0823964 C62.814,22.8074644 62.275,22.6215103 61.979,22.5225348 C60.083,21.7737198 58.573,21.1018858 57.449,20.5030338 C56.327,19.9021822 55.179,19.1283734 54.007,18.1816074 C52.836,17.2328418 51.974,16.1011215 51.427,14.7774485 C50.877,13.4557751 50.602,11.89816 50.602,10.1016039 C50.602,6.86040482 51.638,4.46399696 53.708,2.92037838 C55.778,1.3727608 59.035,0.599951754 63.473,0.599951754 C66.744,0.599951754 69.386,0.997853434 71.408,1.79665605 C72.374,2.17856168 75.214,3.54622374 76.886,4.72793174 L76.886,11.6912111 L69.181,11.6912111 L68.881,8.76693372 C68.131,8.31704489 65.893,8.00712147 63.85,8.00712147 C61.854,8.00712147 60.517,8.18207824 59.845,8.53099202 C59.17,8.87890605 58.833,9.57873313 58.833,10.6244747 C58.833,11.5722405 59.269,12.3220553 60.146,12.8689201 C61.019,13.4187843 63.251,14.3415562 66.841,15.6362363 C71.134,17.1838539 73.751,18.3055768 74.701,19.0044041 C76.646,20.6010096 77.644,23.0434061 77.693,26.3375921 C77.693,30.2776185 76.694,33.0579315 74.701,34.6805306 C72.704,36.2991306 69.487,37.1099303 65.047,37.1099303 C61.352,37.1099303 59.024,36.6870348 56.578,35.8372447 C54.133,34.990454 51.713,33.7937497 49.317,32.2461321 L49.317,25.2768542 L57.025,25.2768542 L57.325,28.2081299 C59.822,29.2048836 61.901,29.7027605 65.047,29.7027605 C66.69,29.7047601 67.842,29.5178062 68.49,29.1438986" id="Fill-39"></path>
                        <path d="M25.4808,11.691711 L19.4208,11.691711 L19.1198,8.52949239 C16.8668,8.81142273 14.5688,11.1148536 12.5968,13.3183091 L12.5968,30.3021125 L19.0318,30.6780196 L19.0318,36.5905586 L0.2488,36.5905586 L0.2488,30.6780196 L4.4398,30.3790934 L4.4398,7.3347876 L0.2488,7.03586146 L0.2488,1.12432218 L12.5978,1.12432218 L12.5978,4.86639753 C14.2988,3.07184096 17.1078,1.12432218 19.1198,1.12432218 L25.4818,1.12432218 L25.4818,11.691711 L25.4808,11.691711 Z" id="Fill-41"></path>
                        <path d="M81.8004,27.8481188 C82.7834,26.8893557 83.9634,26.4084746 85.3394,26.4084746 C86.7184,26.4084746 87.9004,26.8893557 88.8824,27.8481188 C89.8694,28.8058822 90.3574,30.000587 90.3574,31.4242352 C90.3574,32.8528822 89.8694,34.0455875 88.8824,35.0033508 C87.8984,35.9631136 86.7184,36.4419953 85.3394,36.4419953 C83.9634,36.4419953 82.7824,35.9631136 81.8004,35.0033508 C80.8144,34.0455875 80.3244,32.8528822 80.3244,31.4242352 C80.3244,30.000587 80.8154,28.8058822 81.8004,27.8481188" id="Fill-43"></path>
                    </g>
                </g>
            </g>
        </g>
    </g>
</svg>