
<svg width="176px" height="70px" viewBox="0 0 176 70" version="1.1" xmlns="http://www.w3.org/2000/svg" xmlns:xlink="http://www.w3.org/1999/xlink">
    <g id="Page-1" stroke="none" stroke-width="1" fill="none" fill-rule="evenodd">
        <g id="Desktop" transform="translate(-1144.000000, -3930.000000)">
            <g id="Group-3" transform="translate(1144.000000, 3930.000000)">
                <g id="Group-198">
                    <polygon id="Clip-189" points="0.8786 0.0184 175.665 0.0184 175.665 69.272 0.8786 69.272"></polygon>
                    <path d="M123.503,38.695 L125.279,38.695 L125.279,21.923 L123.503,21.923 L123.503,38.695 Z M91.456,26.15 C91.456,25.244 91.925,24.44 92.765,23.835 C93.502,23.299 94.474,23.063 95.784,23.063 C97.528,23.063 98.835,23.633 99.609,24.54 C100.145,25.177 100.379,26.015 100.447,26.553 L102.123,26.553 C102.09,25.478 101.619,24.373 100.85,23.465 C99.709,22.125 97.797,21.486 95.784,21.486 C94.039,21.486 92.394,21.957 91.187,23.063 C90.316,23.87 89.746,24.975 89.746,26.318 C89.746,27.391 90.08,28.263 90.684,28.967 C91.624,30.042 93.1,30.476 94.474,30.644 L97.73,31.081 C99.742,31.348 100.816,32.623 100.816,34.134 C100.816,35.107 100.514,35.678 99.909,36.279 C99.069,37.119 97.696,37.519 95.951,37.519 C94.34,37.519 92.965,37.119 91.993,36.177 C91.289,35.475 90.852,34.603 90.752,33.596 L89.041,33.596 C89.109,34.97 89.511,35.911 90.45,36.985 C91.724,38.427 93.671,39.131 95.951,39.131 C98.167,39.131 100.178,38.461 101.386,37.119 C102.123,36.279 102.526,35.275 102.526,34.035 C102.526,31.987 101.05,29.839 97.896,29.404 L94.711,28.967 C92.161,28.631 91.456,27.559 91.456,26.15 Z M117.118,30.276 C117.118,33.9 115.675,37.455 111.55,37.455 C108.497,37.455 107.223,35.779 107.223,32.859 L107.223,21.889 L105.546,21.889 L105.546,32.959 C105.546,36.718 107.592,39.097 111.449,39.097 C113.798,39.097 116.179,37.757 117.118,35.609 L117.32,38.661 L118.796,38.661 L118.796,21.889 L117.118,21.889 L117.118,30.276 Z M131.385,26.15 C131.385,25.244 131.855,24.44 132.693,23.835 C133.431,23.299 134.404,23.063 135.711,23.063 C137.455,23.063 138.764,23.633 139.537,24.54 C140.073,25.177 140.308,26.015 140.375,26.553 L142.051,26.553 C142.019,25.478 141.549,24.373 140.777,23.465 C139.636,22.125 137.726,21.486 135.711,21.486 C133.967,21.486 132.323,21.957 131.116,23.063 C130.245,23.87 129.673,24.975 129.673,26.318 C129.673,27.391 130.009,28.263 130.614,28.967 C131.552,30.042 133.03,30.476 134.404,30.644 L137.656,31.081 C139.67,31.348 140.744,32.623 140.744,34.134 C140.744,35.107 140.442,35.678 139.838,36.279 C138.999,37.119 137.625,37.519 135.881,37.519 C134.269,37.519 132.893,37.119 131.921,36.177 C131.218,35.475 130.78,34.603 130.682,33.596 L128.969,33.596 C129.037,34.97 129.439,35.911 130.379,36.985 C131.652,38.427 133.598,39.131 135.881,39.131 C138.095,39.131 140.105,38.461 141.313,37.119 C142.051,36.279 142.454,35.275 142.454,34.035 C142.454,31.987 140.978,29.839 137.825,29.404 L134.637,28.967 C132.089,28.631 131.385,27.559 131.385,26.15 Z M147.247,26.15 C147.247,25.244 147.718,24.44 148.557,23.835 C149.294,23.299 150.266,23.063 151.576,23.063 C153.319,23.063 154.627,23.633 155.4,24.54 C155.937,25.177 156.171,26.015 156.239,26.553 L157.916,26.553 C157.882,25.478 157.411,24.373 156.641,23.465 C155.499,22.125 153.587,21.486 151.576,21.486 C149.831,21.486 148.187,21.957 146.979,23.063 C146.108,23.87 145.537,24.975 145.537,26.318 C145.537,27.391 145.874,28.263 146.476,28.967 C147.416,30.042 148.893,30.476 150.266,30.644 L153.522,31.081 C155.534,31.348 156.607,32.623 156.607,34.134 C156.607,35.107 156.304,35.678 155.701,36.279 C154.864,37.119 153.487,37.519 151.742,37.519 C150.133,37.519 148.757,37.119 147.784,36.177 C147.081,35.475 146.644,34.603 146.544,33.596 L144.833,33.596 C144.9,34.97 145.302,35.911 146.242,36.985 C147.517,38.427 149.462,39.131 151.742,39.131 C153.957,39.131 155.968,38.461 157.178,37.119 C157.916,36.279 158.317,35.275 158.317,34.035 C158.317,31.987 156.843,29.839 153.69,29.404 L150.503,28.967 C147.953,28.631 147.247,27.559 147.247,26.15 Z M173.956,29.169 L162.851,29.169 C162.851,25.847 165.031,23.063 168.487,23.063 C171.908,23.063 173.887,25.982 173.956,29.169 Z M175.665,29.604 C175.665,25.378 173.016,21.486 168.487,21.486 C166.14,21.486 164.193,22.493 162.784,24.406 C161.476,26.183 161.141,28.263 161.141,30.375 C161.141,32.926 161.913,35.14 163.287,36.749 C164.495,38.125 166.207,39.131 168.622,39.131 C170.532,39.131 172.211,38.394 173.419,37.185 C174.356,36.279 175.061,35.107 175.297,33.663 L173.553,33.663 C173.349,34.67 172.881,35.407 172.279,36.046 C171.371,36.985 170.099,37.519 168.622,37.519 C166.811,37.519 165.501,36.849 164.56,35.745 C163.49,34.468 162.851,32.657 162.816,30.711 L175.633,30.711 C175.633,30.31 175.665,30.007 175.665,29.604 Z" id="Fill-188" fill="#FEFEFE"></path>
                    <path d="M32.0576,0.0184 L30.2146,6.4544 L34.0476,6.4544 L34.8356,3.7074 L51.1416,3.7074 L45.5676,23.1604 L49.4016,23.1604 L56.0426,0.0184 L32.0576,0.0184 Z M7.7876,9.3184 L0.8786,29.7064 L20.5746,29.7064 L21.6306,26.0204 L6.0216,26.0204 L10.4316,13.0064 L41.7626,13.0064 L38.8516,23.1604 L42.6856,23.1604 L46.6516,9.3184 L7.7876,9.3184 Z M56.2676,9.3204 L55.2046,13.0064 L70.8926,13.0064 L66.4856,26.0244 L35.2486,26.0244 L38.1596,15.8704 L34.3256,15.8704 L30.3656,29.7044 L69.1266,29.7044 L69.5576,28.4484 L76.0366,9.3204 L56.2676,9.3204 Z M27.5116,15.8674 L20.8216,39.1514 L44.8096,39.1514 L46.6486,32.7194 L42.8176,32.7194 L42.0286,35.4624 L25.7126,35.4624 L31.3516,15.8674 L27.5116,15.8674 Z" id="Fill-190" fill="#FEFEFE"></path>
                    <path d="M127.8651,55.8886 C127.2691,55.8886 126.8661,56.1306 126.5431,56.4206 C125.8661,57.0166 125.6401,58.0006 125.6401,59.0156 C125.6401,60.0306 125.8661,61.0146 126.5431,61.6106 C126.8661,61.9006 127.2691,62.1426 127.8651,62.1426 C129.6861,62.1426 130.1701,60.5146 130.1701,59.0156 C130.1701,57.5166 129.6861,55.8886 127.8651,55.8886" id="Fill-191" fill="#FEFEFE"></path>
                    <path d="M134.7157,60.8072 C134.7157,61.5322 135.1667,62.2092 136.3277,62.2092 C136.9567,62.2092 137.5687,62.0002 138.0037,61.5482 C138.4877,61.0482 138.6967,60.3722 138.6967,59.6942 L138.6967,59.2112 L136.5047,59.3402 C135.6827,59.3882 134.7157,59.7752 134.7157,60.8072" id="Fill-192" fill="#FEFEFE"></path>
                    <path d="M80.4543,56.1733 C78.6333,56.1733 78.1493,57.8013 78.1493,59.3003 C78.1493,60.7993 78.6333,62.4273 80.4543,62.4273 C81.0503,62.4273 81.4533,62.1853 81.7763,61.8953 C82.4533,61.2993 82.6783,60.3163 82.6783,59.3003 C82.6783,58.2843 82.4533,57.3013 81.7763,56.7063 C81.4533,56.4153 81.0503,56.1733 80.4543,56.1733" id="Fill-193" fill="#FEFEFE"></path>
                    <path d="M104.0414,55.9559 C103.3964,55.9559 102.9134,56.1969 102.5744,56.5359 C101.9944,57.1319 101.8174,58.1159 101.8174,59.0659 C101.8174,60.0169 101.9944,61.0009 102.5744,61.5969 C102.9134,61.9359 103.3964,62.1769 104.0414,62.1769 C104.6864,62.1769 105.1694,61.9359 105.5084,61.5969 C106.0884,61.0009 106.2654,60.0169 106.2654,59.0659 C106.2654,58.1159 106.0884,57.1319 105.5084,56.5359 C105.1694,56.1969 104.6864,55.9559 104.0414,55.9559" id="Fill-194" fill="#FEFEFE"></path>
                    <path d="M71.1541,56.1733 C69.6711,56.1733 68.9461,57.3823 68.9131,58.5753 L73.2651,58.5753 C73.2651,57.9623 73.0881,57.3503 72.7661,56.9153 C72.4271,56.4643 71.8791,56.1733 71.1541,56.1733" id="Fill-195" fill="#FEFEFE"></path>
                    <path d="M32.7649,56.1733 C31.2819,56.1733 30.5569,57.3823 30.5249,58.5753 L34.8759,58.5753 C34.8759,57.9623 34.6989,57.3503 34.3769,56.9153 C34.0379,56.4643 33.4899,56.1733 32.7649,56.1733" id="Fill-196" fill="#FEFEFE"></path>
                    <path d="M155.3151,64.7534 C154.9281,65.8014 154.3321,66.4944 153.1071,66.4944 C152.4301,66.4944 151.9791,66.3654 151.8661,66.3324 L151.8661,65.1404 C151.8661,65.1404 152.3011,65.2694 152.8331,65.2694 C153.4141,65.2694 153.8331,65.0594 154.0581,64.4474 L154.5741,63.0774 L151.3181,54.9214 L152.8651,54.9214 L155.2671,61.3524 L157.5551,54.9214 L158.9901,54.9214 L155.3151,64.7534 Z M149.7061,63.1444 L148.3351,63.1444 L148.3351,57.9704 C148.3351,56.7454 147.8361,56.0204 146.5461,56.0204 C145.7571,56.0204 145.1281,56.5354 144.7731,57.2774 C144.5001,57.8734 144.4831,58.7284 144.4831,59.3564 L144.4831,63.1444 L143.1131,63.1444 L143.1131,54.9884 L144.3061,54.9884 L144.4191,56.2134 C144.8381,55.2784 145.9661,54.7794 146.8851,54.7794 C148.7381,54.7794 149.7061,55.8914 149.7061,57.7774 L149.7061,63.1444 Z M140.8571,63.0634 C140.5661,63.2084 140.2921,63.2574 139.9541,63.2574 C139.2281,63.2574 138.7771,62.7094 138.7771,62.0164 L138.7451,62.0164 C138.2781,62.8374 137.2621,63.3534 136.1181,63.3534 C134.2481,63.3534 133.3131,62.0964 133.3131,60.8394 C133.3131,59.7914 133.9901,58.4214 136.2151,58.2924 L138.6971,58.1474 L138.6971,57.5514 C138.6971,57.1484 138.6481,56.6484 138.2781,56.3104 C138.0041,56.0524 137.6011,55.8914 136.9401,55.8914 C136.1981,55.8914 135.7311,56.1004 135.4571,56.3754 C135.1991,56.6324 135.0541,56.9554 135.0541,57.3584 L133.7161,57.3584 C133.7331,56.6164 134.0071,56.0844 134.4261,55.6494 C134.9731,55.0694 135.9401,54.7794 136.9401,54.7794 C138.5191,54.7794 139.4221,55.4554 139.8091,56.3424 C139.9701,56.7134 140.0511,57.1324 140.0511,57.5994 L140.0511,61.5484 C140.0511,61.9834 140.2281,62.0964 140.5021,62.0964 C140.6471,62.0964 140.8571,62.0484 140.8571,62.0484 L140.8571,63.0634 Z M130.3311,62.4804 C129.7991,62.9804 129.0411,63.3024 128.0911,63.3024 C127.2041,63.3024 126.1561,62.8834 125.7211,62.1424 L125.7211,66.5754 L124.3511,66.5754 L124.3511,54.9374 L125.5601,54.9374 L125.6571,56.0014 C126.1241,55.1794 127.1721,54.7284 128.0911,54.7284 C129.0901,54.7284 129.8641,55.0664 130.3951,55.6144 C131.1691,56.4044 131.5721,57.6454 131.5721,58.9994 C131.5721,60.4014 131.1531,61.6904 130.3311,62.4804 Z M121.4011,63.1444 L120.0311,63.1444 L120.0311,57.9544 C120.0311,56.8094 119.6601,56.0204 118.3711,56.0204 C117.8551,56.0204 117.4521,56.2294 117.1301,56.5684 C116.5821,57.1324 116.4361,57.9544 116.4361,58.8084 L116.4361,63.1444 L115.0661,63.1444 L115.0661,57.9544 C115.0661,56.8094 114.7281,56.0204 113.4231,56.0204 C112.8421,56.0204 112.3751,56.3104 112.0361,56.7454 C111.6341,57.2614 111.4881,58.1314 111.4881,58.8084 L111.4881,63.1444 L110.1181,63.1444 L110.1181,54.9884 L111.3111,54.9884 L111.4401,56.1494 C111.8751,55.2304 112.8101,54.7794 113.7291,54.7794 C114.9371,54.7794 115.8081,55.3274 116.1631,56.3264 C116.5981,55.3114 117.6451,54.7794 118.6771,54.7794 C120.5311,54.7794 121.4011,55.9714 121.4011,57.7774 L121.4011,63.1444 Z M106.5071,62.4024 C105.9111,62.9834 105.0731,63.3534 104.0411,63.3534 C103.0101,63.3534 102.1721,62.9834 101.5751,62.4024 C100.6891,61.5324 100.4151,60.5904 100.4151,59.3004 C100.4151,58.0114 100.6891,56.6004 101.5751,55.7304 C102.1721,55.1494 103.0101,54.7794 104.0411,54.7794 C105.0731,54.7794 105.9111,55.1494 106.5071,55.7304 C107.3941,56.6004 107.6681,57.7774 107.6681,59.0664 C107.6681,60.3564 107.3941,61.5324 106.5071,62.4024 Z M97.6901,62.3794 C96.9971,63.0724 95.8691,63.6034 94.6281,63.6034 C93.4841,63.6034 92.3561,63.1854 91.5331,62.3794 C90.2921,61.1704 90.0991,59.4944 90.0991,57.6724 C90.0991,55.8514 90.2921,54.1744 91.5331,52.9664 C92.3561,52.1604 93.4841,51.7414 94.6281,51.7414 C95.8691,51.7414 96.9811,52.2244 97.6741,52.9184 C98.3351,53.5944 98.7541,54.4654 98.8031,55.5294 L97.3201,55.5294 C97.3041,54.8994 97.0621,54.3524 96.6911,53.9334 C96.2401,53.4334 95.4981,53.0954 94.6281,53.0954 C93.8541,53.0954 93.0971,53.4014 92.5491,53.9654 C91.6141,54.9324 91.5821,56.4794 91.5821,57.6724 C91.5821,58.8654 91.6141,60.4124 92.5491,61.3794 C93.0971,61.9434 93.8541,62.2504 94.6281,62.2504 C95.4981,62.2504 96.2561,61.8794 96.7071,61.3794 C97.0781,60.9604 97.3201,60.3644 97.3361,59.7354 L98.8191,59.7354 C98.7701,60.7994 98.3511,61.7024 97.6901,62.3794 Z M83.9681,63.3784 L82.7591,63.3784 L82.6621,62.3144 C82.1951,63.1364 81.1471,63.5874 80.2291,63.5874 C79.2291,63.5874 78.4561,63.2494 77.9241,62.7014 C77.1501,61.9114 76.7471,60.6704 76.7471,59.3164 C76.7471,57.9144 77.1661,56.6244 77.9881,55.8344 C78.5201,55.3354 79.2781,55.0134 80.2291,55.0134 C81.1151,55.0134 82.1631,55.4324 82.5981,56.1734 L82.5981,51.7414 L83.9681,51.7414 L83.9681,63.3784 Z M74.6511,59.7524 L68.8811,59.7524 C68.8811,60.4924 69.1711,61.2984 69.6711,61.7984 C70.0421,62.1694 70.5411,62.3794 71.1701,62.3794 C71.8151,62.3794 72.3461,62.2014 72.6851,61.8474 C72.9111,61.6214 73.0561,61.3954 73.1681,60.9604 L74.5061,60.9604 C74.3931,61.7664 73.9101,62.5234 73.2491,62.9754 C72.6691,63.3624 71.9431,63.5874 71.1701,63.5874 C70.0251,63.5874 69.0911,63.1044 68.4621,62.3624 C67.7851,61.5724 67.4471,60.4924 67.4471,59.3324 C67.4471,58.3494 67.6241,57.4794 68.0751,56.7214 C68.6551,55.7384 69.7361,55.0134 71.1541,55.0134 C72.2011,55.0134 73.0391,55.4164 73.6361,56.0604 C74.2971,56.7864 74.6841,57.8344 74.6671,58.9294 L74.6511,59.7524 Z M63.5141,53.3534 L65.1091,53.3534 L65.1091,51.7414 L63.5141,51.7414 L63.5141,53.3534 Z M63.6101,63.3784 L65.0121,63.3784 L65.0121,55.2224 L63.6101,55.2224 L63.6101,63.3784 Z M61.6121,52.8694 C61.1771,52.8214 60.8381,52.7404 60.2581,52.7404 C59.5331,52.7404 59.0981,53.1914 59.0981,53.8524 L59.0981,55.2224 L61.4511,55.2224 L61.4511,56.3834 L59.0981,56.3834 L59.0981,63.3784 L57.7271,63.3784 L57.7271,56.3834 L56.2451,56.3834 L56.2451,55.2224 L57.7271,55.2224 L57.7271,53.7714 C57.7271,52.5464 58.6791,51.5804 60.0971,51.5804 C60.6611,51.5804 61.1611,51.6444 61.6121,51.7254 L61.6121,52.8694 Z M52.3921,53.3534 L53.9881,53.3534 L53.9881,51.7414 L52.3921,51.7414 L52.3921,53.3534 Z M52.4891,63.3784 L53.8911,63.3784 L53.8911,55.2224 L52.4891,55.2224 L52.4891,63.3784 Z M50.1031,63.2654 C49.7321,63.3624 49.2331,63.4904 48.4751,63.4904 C46.7181,63.4904 46.2351,62.3794 46.2351,61.2824 L46.2351,56.3994 L44.6551,56.3994 L44.6551,55.2224 L46.2351,55.2224 L46.2351,53.1434 L47.6051,52.8214 L47.6051,55.2224 L50.0231,55.2224 L50.0231,56.3994 L47.6051,56.3994 L47.6051,61.1224 C47.6051,61.9114 47.9431,62.2334 48.7011,62.2334 C49.2811,62.2334 50.1031,62.0894 50.1031,62.0894 L50.1031,63.2654 Z M42.8761,56.5604 C42.6341,56.5124 42.3611,56.4964 42.1181,56.4964 C41.4741,56.4964 40.9421,56.7864 40.5711,57.1414 C39.9101,57.7694 39.8301,58.8974 39.8301,59.7524 L39.8301,63.3784 L38.4761,63.3784 L38.4761,55.2224 L39.6851,55.2224 L39.7971,56.6574 C40.2161,55.6574 41.2001,55.1744 42.2311,55.1744 C42.4411,55.1744 42.6671,55.1904 42.8761,55.2224 L42.8761,56.5604 Z M36.2621,59.7524 L30.4921,59.7524 C30.4921,60.4924 30.7821,61.2984 31.2821,61.7984 C31.6531,62.1694 32.1521,62.3794 32.7811,62.3794 C33.4261,62.3794 33.9571,62.2014 34.2961,61.8474 C34.5221,61.6214 34.6671,61.3954 34.7791,60.9604 L36.1171,60.9604 C36.0041,61.7664 35.5211,62.5234 34.8601,62.9754 C34.2801,63.3624 33.5541,63.5874 32.7811,63.5874 C31.6361,63.5874 30.7021,63.1044 30.0731,62.3624 C29.3961,61.5724 29.0581,60.4924 29.0581,59.3324 C29.0581,58.3494 29.2351,57.4794 29.6861,56.7214 C30.2661,55.7384 31.3461,55.0134 32.7651,55.0134 C33.8121,55.0134 34.6501,55.4164 35.2471,56.0604 C35.9081,56.7864 36.2941,57.8344 36.2781,58.9294 L36.2621,59.7524 Z M26.3491,62.3794 C25.6561,63.0724 24.5281,63.6034 23.2871,63.6034 C22.1431,63.6034 21.0141,63.1854 20.1921,62.3794 C18.9511,61.1704 18.7581,59.4944 18.7581,57.6724 C18.7581,55.8514 18.9511,54.1744 20.1921,52.9664 C21.0141,52.1604 22.1431,51.7414 23.2871,51.7414 C24.5281,51.7414 25.6401,52.2244 26.3331,52.9184 C26.9941,53.5944 27.4131,54.4654 27.4611,55.5294 L25.9781,55.5294 C25.9621,54.8994 25.7211,54.3524 25.3501,53.9334 C24.8991,53.4334 24.1571,53.0954 23.2871,53.0954 C22.5131,53.0954 21.7561,53.4014 21.2081,53.9654 C20.2731,54.9324 20.2411,56.4794 20.2411,57.6724 C20.2411,58.8654 20.2731,60.4124 21.2081,61.3794 C21.7561,61.9434 22.5131,62.2504 23.2871,62.2504 C24.1571,62.2504 24.9151,61.8794 25.3661,61.3794 C25.7371,60.9604 25.9781,60.3644 25.9951,59.7354 L27.4771,59.7354 C27.4291,60.7994 27.0101,61.7024 26.3491,62.3794 Z M1.7961,69.2724 L175.5951,69.2724 L175.5951,47.6224 L1.7961,47.6224 L1.7961,69.2724 Z" id="Fill-197" fill="#FEFEFE"></path>
                </g>
                <g id="Group-187" transform="translate(90.000000, 2.000000)">
                    <polygon id="Clip-186" points="0.0203 0.0181 85.665 0.0181 85.665 16.8681 0.0203 16.8681"></polygon>
                    <path d="M85.6653,2.8711 L85.6653,0.0181 L72.6173,0.0181 L72.6173,2.8711 L77.6093,2.8711 L77.6093,16.8681 L80.6743,16.8681 L80.6743,2.8711 L85.6653,2.8711 Z M68.6453,5.2461 C68.6453,6.8391 67.6483,7.7421 65.9143,7.7421 L61.8263,7.7421 L61.8263,2.7041 L65.8663,2.7041 C67.6003,2.7041 68.6453,3.8931 68.6453,5.2461 Z M71.7113,16.8681 L68.6233,9.9761 C70.4773,9.2861 71.7113,7.5051 71.7113,5.2461 C71.7113,2.5371 69.8813,0.0181 65.8663,0.0181 L58.7623,0.0181 L58.7623,16.8681 L61.8503,16.8681 L61.8503,10.4991 L65.5803,10.4991 L68.3863,16.8681 L71.7113,16.8681 Z M56.1033,16.8681 L56.1033,14.0861 L47.1673,14.0861 L47.1673,9.4761 L55.0353,9.4761 L55.0353,6.7211 L47.1673,6.7211 L47.1673,2.7981 L56.1033,2.7981 L56.1033,0.0181 L44.1023,0.0181 L44.1023,16.8681 L56.1033,16.8681 Z M39.1243,5.4371 C39.1243,7.0521 38.1983,8.1461 36.1563,8.1461 L32.7083,8.1461 L32.7083,2.7041 L36.1563,2.7041 C38.1983,2.7041 39.1243,3.8211 39.1243,5.4371 Z M42.2153,5.4131 C42.2153,2.1811 40.1473,0.0181 36.2723,0.0181 L29.6673,0.0181 L29.6673,16.8681 L32.7083,16.8681 L32.7083,10.8311 L36.2723,10.8311 C40.1473,10.8311 42.2153,8.6461 42.2153,5.4131 Z M27.9333,16.8681 L22.6783,8.3131 L27.8613,0.0181 L24.5333,0.0181 L20.8753,5.9121 L17.0963,0.0181 L13.7463,0.0181 L18.9963,8.2881 L13.6983,16.8681 L17.0013,16.8681 L20.7793,10.7371 L24.5593,16.8681 L27.9333,16.8681 Z M12.0213,16.8681 L12.0213,14.0861 L3.0843,14.0861 L3.0843,9.4761 L10.9513,9.4761 L10.9513,6.7211 L3.0843,6.7211 L3.0843,2.7981 L12.0213,2.7981 L12.0213,0.0181 L0.0203,0.0181 L0.0203,16.8681 L12.0213,16.8681 Z" id="Fill-185" fill="#FEFEFE"></path>
                </g>
            </g>
        </g>
    </g>
</svg>