<?xml version="1.0" standalone="no"?>
<!DOCTYPE svg PUBLIC "-//W3C//DTD SVG 1.1//EN" "http://www.w3.org/Graphics/SVG/1.1/DTD/svg11.dtd" >
<svg xmlns="http://www.w3.org/2000/svg" xmlns:xlink="http://www.w3.org/1999/xlink" version="1.1">
<metadata></metadata>
<defs>
<font id="selektor_slablight_italic" horiz-adv-x="1101" >
<font-face units-per-em="2048" ascent="1536" descent="-512" />
<missing-glyph horiz-adv-x="450" />
<glyph horiz-adv-x="0" />
<glyph horiz-adv-x="682" />
<glyph unicode=" "  horiz-adv-x="450" />
<glyph unicode="&#x09;" horiz-adv-x="450" />
<glyph unicode="&#xa0;" horiz-adv-x="450" />
<glyph unicode="!" horiz-adv-x="555" d="M215 45q0 35 26 60.5t60 25.5q27 0 44 -17t17 -44q0 -35 -27 -59.5t-61 -24.5q-27 0 -43 16t-16 43zM303 348l211 1086h88l-211 -1086h-88z" />
<glyph unicode="&#x22;" horiz-adv-x="526" d="M319 1004l82 430h97l-129 -430h-50zM504 1004l82 430h96l-129 -430h-49z" />
<glyph unicode="#" horiz-adv-x="1456" d="M143 0l252 410h-192l14 71h223l289 471h-278l14 72h307l254 410h90l-254 -410h381l254 410h90l-254 -410h199l-14 -72h-230l-289 -471h285l-14 -71h-316l-252 -410h-88l252 410h-383l-252 -410h-88zM528 481h383l289 471h-383z" />
<glyph unicode="$" horiz-adv-x="1107" d="M129 129l41 229h72l-25 -182q138 -108 375 -108q121 0 194.5 30t114 93t64.5 176q10 46 12 76.5t-7.5 59.5t-25 48.5t-53.5 45t-79 46.5t-114 55q-15 7 -43 20q-63 29 -91.5 43.5t-72.5 39.5t-61 43.5t-39.5 48t-27.5 61.5t-5.5 75t9.5 97q35 171 129 242.5t284 77.5 l47 227h82l-45 -227q63 -2 111 -10.5t86.5 -26.5t62 -46t36.5 -68t12 -94t-15 -124l-2 -10l-96 -41l4 25q12 69 14.5 117t-6 84.5t-25.5 57.5t-51 34t-76 17.5t-106 4.5q-68 0 -114.5 -5.5t-89 -20.5t-70 -42t-48.5 -70.5t-34 -105.5q-9 -44 -10.5 -75.5t8.5 -61t28 -51 t55.5 -47.5t83 -49t117.5 -56q163 -74 197 -94q90 -51 116 -118q29 -73 3 -210q-40 -208 -149.5 -290t-325.5 -84l-43 -226h-82l43 228q-138 8 -222 45.5t-147 95.5z" />
<glyph unicode="%" horiz-adv-x="1898" d="M270 752l84 434q27 132 111.5 195t241.5 63q160 0 219.5 -63.5t34.5 -194.5l-84 -434q-27 -132 -110.5 -195t-242.5 -63q-158 0 -219 63t-35 195zM350 768q-23 -117 16.5 -162t170.5 -45q130 0 186 45t80 162l78 399q23 114 -20 160.5t-167 46.5t-183.5 -46t-82.5 -161z M608 0l883 1434h80l-885 -1434h-78zM1219 246l84 434q27 132 111 195t241 63q160 0 219.5 -63.5t34.5 -194.5l-84 -434q-27 -133 -110 -195.5t-242 -62.5q-158 0 -219 63t-35 195zM1298 262q-23 -117 16.5 -162t170.5 -45q130 0 186 45t80 162l78 400q23 114 -20 160 t-167 46t-183.5 -45.5t-82.5 -160.5z" />
<glyph unicode="&#x26;" horiz-adv-x="1202" d="M201 401q38 196 134 278.5t269 96.5q-151 60 -200 134.5t-21 219.5q34 177 137 247.5t301 70.5q220 0 304.5 -85t45.5 -286l-2 -10l-96 -41l4 25q12 62 13 110t-10 83t-31.5 58.5t-54.5 37.5t-75.5 20t-97.5 6q-81 0 -141 -13t-95 -33t-59 -55t-35 -66t-20 -79 q-14 -66 -5 -116t74 -99t208 -108l34 -17h490l-17 -82h-155l-58 -299q-43 -216 -160 -313t-335 -100q-220 -3 -304 95.5t-42 319.5zM291 401q-35 -177 26 -254t236 -79q177 -1 270.5 76.5t128.5 256.5l58 297h-314q-98 0 -163 -12.5t-115 -46t-79.5 -91t-47.5 -147.5z" />
<glyph unicode="'" horiz-adv-x="342" d="M319 1004l82 430h97l-129 -430h-50z" />
<glyph unicode="(" horiz-adv-x="653" d="M121 -215l266 1366q29 152 125.5 224.5t271.5 72.5h27l-14 -76h-27q-141 0 -210 -58.5t-93 -183.5l-258 -1325q-24 -125 21.5 -183t187.5 -58h26l-14 -76h-27q-175 0 -243 72.5t-39 224.5z" />
<glyph unicode=")" horiz-adv-x="653" d="M23 -512l14 76h26q142 0 211 58t93 183l258 1325q24 125 -22 183.5t-187 58.5h-27l14 76h27q175 0 243.5 -72.5t39.5 -224.5l-267 -1366q-29 -152 -125.5 -224.5t-271.5 -72.5h-26z" />
<glyph unicode="*" horiz-adv-x="792" d="M319 1012l238 123l-188 125l39 51l190 -123l47 246h60l-48 -246l236 123l22 -51l-239 -125l190 -123l-41 -51l-188 122l-49 -245h-60l50 245l-238 -122z" />
<glyph unicode="+" horiz-adv-x="923" d="M123 451v71h303v303h72v-303h303v-71h-303v-304h-72v304h-303z" />
<glyph unicode="," horiz-adv-x="405" d="M86 -193l125 324h98l-164 -324h-59z" />
<glyph unicode="-" horiz-adv-x="841" d="M211 451l14 71h596l-14 -71h-596z" />
<glyph unicode="." horiz-adv-x="391" d="M133 45q0 35 26 60.5t60 25.5q27 0 44.5 -17.5t17.5 -43.5q0 -35 -27 -59.5t-61 -24.5q-27 0 -43.5 16t-16.5 43z" />
<glyph unicode="/" horiz-adv-x="929" d="M123 0l883 1434h79l-884 -1434h-78z" />
<glyph unicode="0" horiz-adv-x="1290" d="M256 377l133 680q38 201 167.5 296t369.5 95q242 0 333 -95.5t52 -295.5l-133 -680q-39 -200 -166 -295.5t-369 -95.5q-238 0 -331.5 95.5t-55.5 295.5zM344.5 205.5q20.5 -74.5 93.5 -106t219 -31.5t232.5 33t133.5 104t71 198l120 627q37 185 -33 260.5t-274 75.5 q-202 0 -300.5 -75.5t-133.5 -260.5l-121 -627q-28 -123 -7.5 -197.5z" />
<glyph unicode="1" horiz-adv-x="698" d="M205 0l12 61l143 9l250 1286h-305l14 78h394l-264 -1364l139 -9l-13 -61h-370z" />
<glyph unicode="2" horiz-adv-x="970" d="M86 0l49 256q12 61 28.5 108t42.5 82.5t53 61.5t68.5 50t79.5 41.5t97 42.5q57 24 88 38q91 40 140.5 63.5t98 52.5t70 50t43 56t31 69.5t20.5 91.5q12 59 15 97t-6.5 81t-37.5 67.5t-84 41t-141 16.5q-162 0 -248 -68t-120 -247l-6 -25l-80 41l2 10q39 199 155.5 285 t329.5 86q83 0 141 -12t100 -39.5t61 -72.5t22.5 -110.5t-15.5 -154.5q-9 -47 -21.5 -86.5t-24 -70.5t-32 -58.5t-35.5 -47t-45 -40.5t-48.5 -33.5t-58.5 -31.5t-63.5 -29t-75 -31.5t-81.5 -34.5q-118 -52 -179.5 -83.5t-105.5 -70t-61 -76.5t-29 -102l-37 -186h643l41 151 h62l-45 -229h-801z" />
<glyph unicode="3" horiz-adv-x="1077" d="M106 121l44 229h71l-24 -190q124 -92 333 -92q186 0 281.5 76.5t130.5 256.5q11 60 11.5 105t-11.5 78.5t-34.5 55t-60 34.5t-84.5 18.5t-112 5.5h-67l14 82l39 17q102 36 171 68t110.5 59t66.5 60.5t35.5 61.5t19.5 74q9 47 10.5 79t-9 66t-38.5 54.5t-83 33.5t-136 13 q-169 0 -256 -67t-122 -248l-5 -25l-79 41l2 10q39 201 156 286t337 85q198 0 274 -71t42 -247q-28 -145 -107 -219t-254 -135q66 -6 113.5 -20t84.5 -41.5t53.5 -69.5t20.5 -103t-14 -143q-41 -216 -162.5 -314.5t-349.5 -98.5q-272 0 -412 135z" />
<glyph unicode="4" horiz-adv-x="1191" d="M186 434l11 55l637 945h96l-621 -922h568l86 434h88l-86 -434h223l-14 -78h-224l-71 -364l141 -9l-12 -61h-371l12 61l142 9l71 364h-676z" />
<glyph unicode="5" horiz-adv-x="1077" d="M88 121l53 67q64 -54 149 -87t222 -33q199 0 297 75.5t133 257.5q15 76 17.5 131t-9 95.5t-34 66t-63 40.5t-90 20.5t-120.5 5.5h-281l132 674h649l-45 -230h-62l21 152h-490l-100 -514h190q82 0 140 -6.5t109.5 -24t81.5 -49t47.5 -80t16 -119t-19.5 -164.5 q-42 -217 -166 -315t-366 -98q-272 0 -412 135z" />
<glyph unicode="6" horiz-adv-x="1208" d="M256 377l133 680q38 199 168.5 295t357.5 96q204 0 296 -76.5t83 -232.5l-94 -41q13 145 -59 206.5t-244 61.5q-190 0 -289 -76t-135 -260l-43 -221q176 86 393 86q221 0 309 -96.5t50 -294.5l-25 -127q-39 -199 -165 -295t-361 -96q-232 0 -322.5 95.5t-52.5 295.5z M352 403q-36 -186 31 -260.5t262 -74.5q197 0 294.5 75t133.5 260l14 74q35 182 -29 259t-247 77q-224 0 -397 -98z" />
<glyph unicode="7" horiz-adv-x="929" d="M205 0l839 1356h-669l-39 -152h-62l45 230h848l-10 -50l-858 -1384h-94z" />
<glyph unicode="8" horiz-adv-x="1167" d="M205 403q33 170 112 259t218 120q-96 28 -128.5 105t-3.5 225q35 185 136.5 260.5t314.5 75.5q218 0 300.5 -79.5t43.5 -274.5q-26 -136 -87.5 -210t-166.5 -102q130 -31 173 -119.5t9 -259.5q-44 -226 -168.5 -321.5t-371.5 -95.5q-243 0 -334 95t-47 322zM287.5 205.5 q20.5 -74.5 93.5 -106t219 -31.5q214 0 306.5 73t129.5 262q27 123 6.5 197.5t-93.5 106.5t-218 32q-146 0 -233 -33.5t-133 -104t-70 -198.5q-28 -123 -7.5 -197.5zM484 945q11 -63 69.5 -93.5t175.5 -30.5q179 0 266.5 69t114.5 214q16 84 2 142.5t-81.5 89t-196.5 30.5 q-119 0 -188.5 -29t-101.5 -82.5t-52 -150.5q-19 -96 -8 -159z" />
<glyph unicode="9" horiz-adv-x="1208" d="M193 295l94 41q-15 -145 57 -206.5t244 -61.5q190 0 289 75.5t135 259.5l43 222q-172 -86 -393 -86t-309 96.5t-50 294.5l25 127q39 199 165 295t361 96q232 0 322.5 -95.5t52.5 -295.5l-133 -680q-38 -198 -169 -294.5t-358 -96.5q-204 0 -295.5 76.5t-80.5 232.5z M397 956q-35 -181 30.5 -258t248.5 -77q222 0 395 98l62 311q36 186 -31 261t-262 75q-196 0 -293.5 -75.5t-134.5 -260.5z" />
<glyph unicode=":" horiz-adv-x="391" d="M133 45q0 35 26 60.5t60 25.5q27 0 44.5 -17.5t17.5 -43.5q0 -35 -27 -59.5t-61 -24.5q-27 0 -43.5 16t-16.5 43zM299 899q0 35 25.5 60.5t60.5 25.5q27 0 44 -17t17 -44q0 -35 -27 -59.5t-61 -24.5q-26 0 -42.5 16.5t-16.5 42.5z" />
<glyph unicode=";" horiz-adv-x="411" d="M86 -193l125 324h98l-164 -324h-59zM319 899q0 35 26.5 60.5t62.5 25.5q27 0 43 -17t16 -44q0 -35 -27 -59.5t-61 -24.5q-26 0 -43 16.5t-17 42.5z" />
<glyph unicode="&#x3c;" horiz-adv-x="937" d="M123 471v33l645 463l47 -66l-577 -414l577 -413l-47 -66z" />
<glyph unicode="=" horiz-adv-x="923" d="M123 287v71h678v-71h-678zM123 614v72h678v-72h-678z" />
<glyph unicode="&#x3e;" horiz-adv-x="937" d="M123 74l575 413l-575 414l47 66l645 -463v-33l-645 -463z" />
<glyph unicode="?" horiz-adv-x="1064" d="M330 1067l2 10q17 89 38.5 147t56.5 104t88.5 71t128.5 37t183 12q77 0 131.5 -5.5t97.5 -20t68 -36.5t38.5 -57t13 -80.5t-12.5 -107.5q-11 -54 -25 -96t-35 -75t-39.5 -56t-51.5 -47.5t-56.5 -39t-68.5 -42t-74 -46.5q-84 -54 -109.5 -98t-50.5 -172l-22 -121h-88 l20 113q7 39 12.5 66.5t14.5 55t12.5 43.5t16.5 36.5t17 29.5t23 27t25.5 24t34.5 24.5t39 25.5t49 30q56 35 79.5 50.5t59.5 43t51 47t34 51t28.5 67.5t17.5 85q4 22 5.5 34.5t2.5 31.5t-1.5 30t-8 25.5t-16.5 23t-26.5 18.5t-38.5 15.5t-52.5 11t-68 7.5t-85.5 2 q-70 0 -118 -5t-87.5 -19.5t-64 -35.5t-45 -59t-33 -82.5t-26.5 -113.5l-4 -25zM455 57q6 31 30.5 52.5t55.5 21.5t48 -21.5t11 -52.5q-6 -30 -31.5 -50.5t-56.5 -20.5t-47 20t-10 51z" />
<glyph unicode="@" horiz-adv-x="1617" d="M173.5 -191.5q-14.5 73.5 6.5 173.5l209 1075q16 84 44 143.5t79 108.5t127.5 78.5t188 45t262.5 15.5q190 0 309 -24t176.5 -73t70.5 -122.5t-8 -171.5l-204 -1057h-88l26 135q-168 -149 -375 -149q-132 0 -198.5 66.5t-38.5 209.5l86 447q28 143 120.5 209.5 t225.5 66.5q206 0 315 -151l39 196q29 123 0 197.5t-137.5 106.5t-335.5 32q-137 0 -232 -11.5t-161 -34.5t-106.5 -65t-63 -94t-37.5 -131l-199 -1022q-29 -123 -5 -197.5t132 -106.5t344 -32h381l-16 -82h-379q-188 0 -306 24t-177.5 72.5t-74 122zM848 283 q-43 -222 170 -222q89 0 192.5 44t180.5 131l98 499q-44 87 -130.5 130.5t-176.5 43.5q-213 0 -256 -221z" />
<glyph unicode="A" horiz-adv-x="1267" d="M20 0l13 61l121 7l665 1296l-133 8l12 62h271l170 -1366l121 -7l-13 -61h-338l13 61l127 9l-45 352h-576l-180 -352l123 -9l-13 -61h-338zM467 500h526l-104 821z" />
<glyph unicode="B" horiz-adv-x="1226" d="M123 0l12 61l141 9l252 1292l-139 10l12 62h498q137 0 221.5 -23t121.5 -67.5t43 -110.5q1 -16 2 -33q0 -54 -15 -119q-27 -140 -83 -214t-169 -105q143 -25 179 -105q19 -42 18 -107q0 -60 -15 -140l-2 -19q-16 -84 -38 -142.5t-60 -108.5t-93.5 -79t-136.5 -45 t-192 -16h-557zM367 82h329q92 0 156 11.5t108 32.5t73 62t46 89.5t33 125.5v3q14 71 14 125q0 31 -4 57q-14 70 -83 100.5t-218 30.5h-329zM506 801h268q93 0 158.5 11.5t108.5 32t71.5 59t43.5 82t28 110.5q9 46 9 84q0 35 -8 63q-16 57 -86 83t-216 26h-269z" />
<glyph unicode="C" horiz-adv-x="1198" d="M258 377l133 680q75 391 531 391q226 0 310 -96q60 -68 60 -188q0 -49 -10 -107l-4 -25l-98 -41l8 39q14 67 14 120q0 92 -42 140q-66 76 -256.5 76t-291.5 -76t-137 -260l-121 -627q-12 -60 -12 -108q0 -98 48 -150q71 -77 259 -77q213 0 385 102l49 184h62l-45 -229 q-205 -139 -469 -139q-384 0 -384 286q0 48 11 105z" />
<glyph unicode="D" horiz-adv-x="1359" d="M123 0l12 61l144 9l249 1292l-139 10l12 62h549q272 0 370 -94q70 -68 69 -191q0 -49 -11 -107l-127 -651q-39 -203 -173 -297t-406 -94h-549zM369 82h319q232 0 338 74.5t141 261.5l115 598q12 61 12 110q0 102 -52 152q-76 74 -308 74h-320z" />
<glyph unicode="E" horiz-adv-x="1148" d="M123 0l12 61l144 9l249 1292l-139 10l12 62h924l-45 -230h-61l20 152h-623l-102 -529h479l39 152h62l-74 -381h-62l19 152h-479l-131 -672h622l41 151h62l-45 -229h-924z" />
<glyph unicode="F" horiz-adv-x="1148" d="M123 0l12 61l144 9l249 1292l-139 10l12 62h924l-45 -230h-61l20 152h-623l-110 -570h479l39 152h61l-73 -381h-62l19 152h-480l-122 -637l200 -11l-12 -61h-432z" />
<glyph unicode="G" horiz-adv-x="1261" d="M258 377l133 680q38 199 170.5 295t366.5 96q229 0 324 -97q70 -71 70 -197q0 -45 -9 -97l-4 -25l-99 -41l9 39q12 59 12 107q0 99 -52 151q-77 78 -270 78q-198 0 -298.5 -76t-135.5 -260l-121 -627q-12 -60 -12 -109q0 -98 48 -150q71 -76 265 -76q115 0 222.5 27 t185.5 67l88 452h-369l15 78h456l-110 -567q-77 -52 -210 -95.5t-296 -43.5q-229 0 -323 96q-67 69 -67 189q0 49 11 106z" />
<glyph unicode="H" horiz-adv-x="1511" d="M123 0l12 61l144 9l249 1292l-139 10l12 62h371l-12 -62l-144 -8l-102 -537h807l102 535l-139 10l12 62h371l-12 -62l-144 -8l-249 -1294l139 -9l-12 -61h-371l12 61l144 9l131 680h-807l-131 -680l139 -9l-12 -61h-371z" />
<glyph unicode="I" horiz-adv-x="616" d="M123 0l12 61l144 9l249 1292l-139 10l12 62h371l-12 -62l-144 -8l-249 -1294l139 -9l-12 -61h-371z" />
<glyph unicode="J" horiz-adv-x="1103" d="M197 377l16 80l94 39l-18 -93q-15 -76 -15 -133q0 -81 30 -126q50 -76 194 -76q141 0 218 75.5t113 259.5l187 959l-139 10l12 62h371l-13 -62l-141 -8l-193 -987q-38 -199 -145.5 -295t-288.5 -96q-184 0 -253 97q-44 61 -44 163q0 59 15 131z" />
<glyph unicode="K" horiz-adv-x="1323" d="M123 0l12 61l144 9l249 1292l-139 10l12 62h371l-12 -62l-144 -8l-139 -717l776 787h199l-12 -62l-158 -10l-514 -520l367 -772l147 -9l-12 -61h-195l-366 780l-258 -260l-82 -438l-2 -12l139 -9l-12 -61h-371z" />
<glyph unicode="L" horiz-adv-x="1026" d="M123 0l12 61l144 9l249 1292l-139 10l12 62h371l-12 -62l-144 -8l-249 -1286h520l41 151h61l-45 -229h-821z" />
<glyph unicode="M" horiz-adv-x="1568" d="M123 0l12 61l144 9l249 1292l-139 10l12 62h238l248 -914l602 914h235l-12 -62l-143 -10l-250 -1292l139 -9l-12 -61h-371l12 61l144 9l227 1171l-540 -811h-99l-225 811l-227 -1171l139 -9l-12 -61h-371z" />
<glyph unicode="N" horiz-adv-x="1470" d="M123 0l12 61l144 9l249 1292l-139 10l12 62h236l512 -1272l233 1200l-139 10l12 62h371l-12 -62l-144 -8l-264 -1364h-94l-512 1276l-233 -1206l139 -9l-12 -61h-371z" />
<glyph unicode="O" horiz-adv-x="1351" d="M256 377l133 680q39 204 170 297.5t397 93.5q138 0 228 -24t138 -73q46 -49 58 -123q4 -27 5 -56q0 -52 -13 -115l-133 -680q-26 -135 -87 -218.5t-178.5 -128t-299.5 -44.5q-265 0 -361 94q-68 67 -68 189q0 49 11 108zM344 206q20 -74 99 -106t245 -32 q125 0 205.5 16.5t134 58.5t81.5 102t46 158l121 627q15 66 15 117q1 45 -11 81q-24 74 -104.5 106t-237.5 32q-156 0 -248.5 -33t-142.5 -104.5t-74 -198.5l-121 -627q-17 -73 -16 -128q0 -38 8 -69z" />
<glyph unicode="P" horiz-adv-x="1185" d="M123 0l12 61l144 9l249 1292l-139 10l12 62h478q182 0 276.5 -43t115.5 -130q9 -39 10 -87q0 -59 -15 -132l-31 -159q-20 -104 -54 -173.5t-95.5 -120.5t-156.5 -74t-233 -23h-247l-82 -420l200 -11l-12 -61h-432zM463 573h248q118 0 193.5 17t125.5 59t76 102t45 158 l20 107q17 75 17 133q0 37 -7 65q-17 74 -90.5 106t-228.5 32h-248z" />
<glyph unicode="Q" horiz-adv-x="1357" d="M256 377l133 680q39 204 170 297.5t397 93.5q138 0 228 -24t137.5 -73t58.5 -123q5 -26 5 -56q0 -53 -13 -115l-133 -680q-30 -153 -111 -243t-231 -126l25 -31q51 -73 104 -106q46 -29 103 -29h14l-19 -86q-13 -1 -25 -1q-139 0 -239 143l-65 94q-61 -6 -121 -6 q-265 0 -361 94q-68 67 -68 189q0 49 11 108zM344 206q19 -75 98.5 -106.5t245.5 -31.5q125 0 205.5 16.5t134 58.5t81.5 102t46 158l121 627q15 66 15 117q0 46 -11 81q-25 74 -105 106t-237 32q-156 0 -248.5 -33t-142.5 -104.5t-74 -198.5l-121 -627q-17 -73 -17 -128 q0 -39 9 -69z" />
<glyph unicode="R" horiz-adv-x="1265" d="M123 0l12 61l141 9l252 1292l-139 10l12 62h486q182 0 276 -43q95 -43 115 -130q9 -38 9 -85q0 -60 -15 -134l-19 -102q-34 -172 -114 -262t-246 -117l205 -489l157 -11l-12 -61h-217l-231 551q-25 -2 -80 -2h-256l-94 -479l139 -9l-12 -61h-369zM473 631h256 q117 0 193 17t125.5 59t75 102t44.5 158l11 49q17 76 17 134q-1 36 -7 64q-16 74 -89.5 106t-228.5 32h-256z" />
<glyph unicode="S" horiz-adv-x="1107" d="M129 129l41 229h72l-25 -182q138 -108 375 -108q121 0 194.5 30t114 93t64.5 176q10 46 12 76.5t-7.5 59.5t-25 48.5t-53.5 45t-79 46.5t-114 55q-15 7 -43 20q-63 29 -91.5 43.5t-72.5 39.5t-61 43.5t-39.5 48t-27.5 61.5q-6 35 -6 79q0 41 10 93q36 180 139.5 251 t316.5 71q72 0 125 -7t97 -23.5t71 -44.5t42 -69q15 -40 14 -93q0 -57 -15 -134l-2 -10l-96 -41l4 25q13 69 15 117q1 11 0 21q0 35 -6 63q-8 36 -25.5 57.5t-51.5 34.5t-76 17.5t-106 4.5q-68 0 -114.5 -5.5t-89 -20.5t-70 -42t-48.5 -70.5t-34 -105.5q-9 -44 -11 -75.5 t8.5 -61t28.5 -51t55.5 -47.5t83 -49t117.5 -56q163 -74 197 -94q90 -51 116 -118q15 -38 15 -95q0 -50 -12 -115q-40 -208 -151 -291t-329 -83q-173 0 -274 39t-172 104z" />
<glyph unicode="T" horiz-adv-x="1046" d="M274 1204l45 230h965l-45 -230h-61l18 152h-367l-249 -1286l141 -9l-12 -61h-371l12 61l142 9l249 1286h-368l-37 -152h-62z" />
<glyph unicode="U" horiz-adv-x="1429" d="M326 377l192 985l-139 10l12 62h371l-12 -62l-144 -8l-186 -961q-18 -77 -18 -136q0 -33 6 -61q16 -74 90 -106t229 -32t242 33.5t129 102.5t67 199l201 1031h229l-12 -62l-145 -10l-191 -985q-20 -101 -56.5 -172t-99 -121.5t-155.5 -74t-223 -23.5q-250 0 -338 94 q-61 65 -61 182q0 52 12 115z" />
<glyph unicode="V" horiz-adv-x="1290" d="M307 1372l12 62h338l-12 -62l-127 -8l146 -1264l673 1334h191l-12 -62l-125 -8l-691 -1364h-112l-162 1364z" />
<glyph unicode="W" horiz-adv-x="1738" d="M307 1372l12 62h338l-12 -62l-121 -8l88 -1245l609 1315h92l-209 -449l61 -866l609 1315h202l-12 -62l-129 -8l-633 -1364h-115l-63 817l-377 -817h-115l-102 1364z" />
<glyph unicode="X" horiz-adv-x="1265" d="M41 0l12 61l125 9l555 714l-227 580l-115 8l12 62h338l-12 -62l-121 -8l197 -506l444 576h189l-13 -62l-129 -8l-456 -588l274 -706l123 -9l-12 -61h-338l12 61l113 7l-244 634l-543 -702h-184z" />
<glyph unicode="Y" horiz-adv-x="1226" d="M307 1372l12 62h338l-12 -62l-129 -8l209 -762l555 832h184l-12 -62l-123 -8l-581 -872l-82 -422l141 -9l-12 -61h-371l12 61l142 9l81 422l-241 872z" />
<glyph unicode="Z" horiz-adv-x="944" d="M41 0l12 59l973 1297h-631l-39 -152h-61l45 230h809l-12 -62l-971 -1294h659l41 151h62l-45 -229h-842z" />
<glyph unicode="[" horiz-adv-x="759" d="M63 -512l379 1946h473l-14 -72h-391l-350 -1802h391l-14 -72h-474z" />
<glyph unicode="\" horiz-adv-x="929" d="M401 1434h80l326 -1434h-78z" />
<glyph unicode="]" horiz-adv-x="759" d="M23 -512l14 72h391l350 1802h-391l14 72h473l-378 -1946h-473z" />
<glyph unicode="^" horiz-adv-x="966" d="M123 967l344 481h33l344 -481l-66 -47l-295 411l-295 -411z" />
<glyph unicode="_" horiz-adv-x="1128" d="M90 -164l14 72h883l-14 -72h-883z" />
<glyph unicode="`" horiz-adv-x="442" d="M383 1335h92l68 -188h-70z" />
<glyph unicode="a" d="M212 134q-5 23 -4 52q0 35 7 76l86 447q28 143 120.5 209.5t225.5 66.5q207 0 316 -151l26 137h82l-174 -903l135 -9l-12 -59h-219l26 135q-165 -149 -374 -149q-64 0 -112 15t-83.5 48t-45.5 85zM303 283q-7 -37 -7 -68q0 -154 177 -154q89 0 192.5 44t182.5 131l96 499 q-44 87 -130.5 130.5t-176.5 43.5q-213 0 -256 -221z" />
<glyph unicode="b" d="M82 0l12 59l137 9l252 1296l-135 10l12 60h220l-117 -600q167 151 375 151q132 -1 198 -67q47 -47 47 -131q0 -36 -8 -78l-86 -447q-28 -143 -120 -209.5t-224 -66.5q-212 0 -317 149l-27 -135h-219zM346 236q44 -87 131 -131t176 -44q213 0 256 222l78 405q7 37 7 68 q0 153 -177 153q-89 0 -191.5 -43.5t-181.5 -130.5z" />
<glyph unicode="c" horiz-adv-x="995" d="M219 283l80 405q57 297 410 297q177 -1 243 -73q45 -50 44 -136q0 -40 -9 -88l-6 -31l-90 -41l10 52q9 45 9 82q0 64 -28 101q-46 58 -188 58q-143 0 -217 -59t-98 -182l-72 -365q-8 -41 -8 -75q1 -70 35 -108q52 -58 196 -59q147 0 265 66l47 176h69l-43 -219 q-144 -98 -358 -98q-299 0 -299 218q0 37 8 79z" />
<glyph unicode="d" d="M212 134q-5 23 -4 52q0 35 7 76l86 447q28 143 120.5 209.5t225.5 66.5q207 0 316 -151l104 530l-135 10l10 60h219l-264 -1366l135 -9l-12 -59h-219l26 135q-165 -149 -374 -149q-64 0 -112 15t-83.5 48t-45.5 85zM303 283q-7 -37 -7 -68q0 -154 177 -154q89 0 192.5 44 t182.5 131l96 499q-44 87 -130.5 130.5t-176.5 43.5q-213 0 -256 -221z" />
<glyph unicode="e" horiz-adv-x="987" d="M219 283l80 405q29 153 127.5 225t280.5 72q185 -1 253 -73q48 -50 48 -139q0 -39 -9 -85l-45 -235h-618l-29 -150q-8 -43 -9 -77q0 -68 32 -107q47 -58 194 -58q161 0 283 66l47 176h70l-43 -219q-61 -42 -157.5 -70t-215.5 -28q-178 0 -248 72q-49 51 -50 142 q0 38 9 83zM350 524h535l28 144q8 42 8 76q0 68 -32 107q-48 58 -197 58q-148 0 -218.5 -58t-94.5 -183z" />
<glyph unicode="f" horiz-adv-x="581" d="M-162 -512l43 219h60l-19 -141q49 2 82 9t63.5 25t49.5 53.5t30 90.5l226 1155h-158l14 72h158l45 227q11 59 34.5 101.5t53 68.5t71 41t82.5 20t95 5h51l-43 -220h-59l18 142q-49 -2 -82 -9t-63.5 -25t-49.5 -53.5t-30 -90.5l-41 -207h219l-14 -72h-219l-230 -1175 q-11 -59 -34.5 -101.5t-53 -68.5t-71 -41t-82.5 -20t-95 -5h-51z" />
<glyph unicode="g" d="M123 -414l55 68q33 -25 61.5 -41t88 -32.5t129.5 -16.5q142 0 212.5 60t94.5 181l63 330q-165 -149 -374 -149q-64 0 -112 15t-83 48t-46 85q-4 24 -4 52q0 35 7 76l88 447q28 143 120 209.5t224 66.5q207 0 316 -151l26 137h219l-10 -60l-139 -10l-217 -1116 q-29 -151 -125.5 -224t-267.5 -73q-114 0 -197.5 28t-128.5 70zM303 283q-7 -37 -7 -68q0 -154 177 -154q89 0 192.5 44t182.5 131l96 499q-44 87 -130 130.5t-175 43.5q-213 0 -256 -221z" />
<glyph unicode="h" horiz-adv-x="1167" d="M82 0l12 59l137 9l252 1296l-135 10l12 60h220l-117 -600q167 151 375 151q132 -1 198 -67q47 -47 47 -131q0 -36 -8 -78l-125 -641l137 -9l-12 -59h-356l12 59l137 9l121 620q7 37 7 68q0 153 -179 153q-89 0 -191.5 -43.5t-181.5 -130.5l-131 -667l138 -9l-13 -59h-356 z" />
<glyph unicode="i" horiz-adv-x="520" d="M82 0l12 59l137 9l164 833l-137 10l12 60h219l-176 -903l138 -9l-13 -59h-356zM455 1362q0 35 25.5 60.5t60.5 25.5q27 0 44 -17.5t17 -44.5q0 -34 -26.5 -58.5t-61.5 -24.5q-27 0 -43 16t-16 43z" />
<glyph unicode="j" horiz-adv-x="495" d="M-100 -512l14 78h4q109 0 169.5 36.5t80.5 141.5l225 1157l-135 10l12 60h217l-241 -1247q-11 -59 -34.5 -101.5t-53 -68.5t-71 -41t-82.5 -20t-95 -5h-10zM451 1362q0 35 26.5 60.5t61.5 25.5q27 0 44 -17.5t17 -44.5q0 -35 -27 -59t-63 -24q-26 0 -42.5 16.5 t-16.5 42.5z" />
<glyph unicode="k" horiz-adv-x="1038" d="M82 0l12 59l137 9l252 1296l-135 10l12 60h220l-199 -1020l559 557h195l-13 -60l-157 -10l-322 -321l229 -510l150 -11l-12 -59h-191l-233 522l-228 -223l-45 -231l138 -9l-13 -59h-356z" />
<glyph unicode="l" horiz-adv-x="520" d="M82 0l12 59l137 9l252 1296l-135 10l12 60h220l-267 -1366l138 -9l-13 -59h-356z" />
<glyph unicode="m" horiz-adv-x="1660" d="M82 0l12 59l137 9l164 833l-137 10l12 60h219l-26 -135q86 81 164 115t170 34q204 0 215 -166q90 90 172.5 128t177.5 38q128 0 182 -65q35 -43 34 -120q0 -41 -9 -91l-125 -641l137 -9l-12 -59h-357l13 59l137 9l121 620q9 49 9 86q0 54 -19 84q-33 51 -132 51 q-173 0 -333 -174q0 -10 -4 -26l-125 -641l137 -9l-12 -59h-357l12 59l138 9l121 620q9 50 9 87q0 54 -19 84q-33 50 -132 50q-175 0 -332 -174l-131 -667l138 -9l-13 -59h-356z" />
<glyph unicode="n" horiz-adv-x="1167" d="M82 0l12 59l137 9l164 833l-137 10l12 60h219l-26 -137q167 151 375 151q132 -1 198 -67q47 -47 47 -131q0 -36 -8 -78l-125 -641l137 -9l-12 -59h-356l12 59l137 9l121 620q7 37 7 68q0 153 -179 153q-89 0 -191.5 -43.5t-181.5 -130.5l-131 -667l138 -9l-13 -59h-356z " />
<glyph unicode="o" horiz-adv-x="1089" d="M219 283l80 405q30 153 132.5 225t303.5 72q208 1 282 -71q53 -51 53 -144q0 -38 -9 -82l-80 -405q-30 -154 -130 -225.5t-306 -71.5q-203 0 -279 72q-55 51 -55 145q0 37 8 80zM307 303q-8 -41 -8 -75q-1 -72 35 -110q52 -58 223 -57q116 0 187.5 28t106 79t50.5 135 l72 365q8 41 8 74q0 71 -36 110q-53 57 -224 57q-168 0 -243 -57.5t-99 -183.5z" />
<glyph unicode="p" d="M-18 -512l12 59l139 11l260 1343l-135 10l12 60h219l-26 -137q165 151 375 151q132 0 198 -67q47 -46 47 -131q0 -36 -8 -78l-88 -447q-28 -143 -120 -209.5t-224 -66.5q-210 0 -317 149l-111 -577l197 -11l-13 -59h-417zM346 236q44 -87 130 -131t175 -44q217 0 260 222 l78 405q7 37 7 68q0 153 -179 153q-89 0 -192.5 -43.5t-182.5 -130.5z" />
<glyph unicode="q" d="M212 134q-4 24 -4 52q0 35 7 76l86 447q28 143 120.5 209.5t225.5 66.5q207 0 316 -151l26 137h219l-10 -60l-139 -10l-262 -1345l135 -9l-10 -59h-418l10 59l201 11l112 577q-165 -149 -374 -149q-64 0 -112 15t-83 48t-46 85zM303 283q-7 -37 -7 -68q0 -154 177 -154 q89 0 192.5 44t182.5 131l96 499q-44 87 -130.5 130.5t-176.5 43.5q-213 0 -256 -221z" />
<glyph unicode="r" horiz-adv-x="718" d="M82 0l12 59l137 9l164 833l-137 10l12 60h219l-30 -158q181 172 338 172h51l-41 -219h-59l16 141q-67 -5 -157.5 -56t-166.5 -136l-127 -647l199 -9l-12 -59h-418z" />
<glyph unicode="s" horiz-adv-x="907" d="M119 84l43 219h69l-24 -174q107 -68 287 -68q148 0 214 49.5t66 163.5q0 39 -13 61.5t-58 49t-146 66.5q-19 8 -53.5 21.5t-48.5 19.5t-40.5 18t-37 19t-29 19t-25.5 22.5t-17.5 26t-14.5 32.5t-7 38t-3 46q0 132 80 202t272 70q178 1 251 -63q46 -40 46 -107 q0 -38 -15 -84l-2 -6l-77 -29l4 17q10 41 10 73q0 55 -30 81q-48 42 -187 42q-140 0 -203 -41t-63 -143q0 -69 42 -105.5t185 -93.5q145 -57 175 -74q63 -36 80 -92q9 -31 9 -77q0 -157 -96 -227t-287 -70q-231 0 -356 98z" />
<glyph unicode="t" horiz-adv-x="622" d="M236 899l14 72h459l-15 -72h-219l-125 -643q-7 -34 -6.5 -60.5t5.5 -45t17.5 -31.5t27.5 -21t38 -12.5t45 -6t53 -1.5h5l-15 -78h-10q-38 0 -67.5 2.5t-60 9t-50.5 18t-39 29t-26 42.5t-11 59q-1 8 0 16q0 27 8 60l129 663h-157z" />
<glyph unicode="u" horiz-adv-x="1167" d="M270 911l11 60h219l-133 -688q-7 -37 -7 -68q0 -154 179 -154q89 0 192 44t182 131l129 665l-135 10l11 60h219l-174 -903l135 -9l-13 -59h-219l27 135q-165 -149 -375 -149q-132 0 -198 66q-47 47 -47 132q0 36 8 78l125 639z" />
<glyph unicode="v" horiz-adv-x="1124" d="M197 911l12 60h356l-12 -60l-139 -10v-2l164 -801l520 873h194l-12 -60l-129 -8l-539 -903h-96l-192 903z" />
<glyph unicode="w" horiz-adv-x="1366" d="M197 911l12 60h356l-12 -60l-145 -10l96 -782l436 852h84l-186 -363l59 -485l434 848h203l-12 -60l-142 -10l-458 -901h-95l-59 471l-240 -471h-94l-112 903z" />
<glyph unicode="x" horiz-adv-x="1003" d="M20 0l13 59l145 9l383 456l-168 379l-121 8l13 60h356l-12 -60l-140 -10l140 -313l315 383h205l-12 -60l-154 -10l-321 -385l196 -448l137 -9l-12 -59h-356l12 59l125 9l-172 385l-373 -453h-199z" />
<glyph unicode="y" horiz-adv-x="1058" d="M82 -512l12 59l142 11l239 432l-158 913l-120 8l12 60h356l-12 -60l-147 -10l135 -795l483 865h203l-13 -60l-143 -10l-790 -1413h-199z" />
<glyph unicode="z" horiz-adv-x="815" d="M41 0l10 57l766 842h-502l-36 -147h-60l43 219h680l-10 -58l-766 -841h530l39 147h60l-43 -219h-711z" />
<glyph unicode="{" horiz-adv-x="788" d="M240 397l14 70q77 21 119 76t61 151l88 457q29 152 126 224.5t272 72.5h26l-14 -76h-27q-141 0 -210 -58.5t-93 -183.5l-88 -456q-38 -187 -168 -242q110 -55 74 -242l-76 -385q-24 -125 21.5 -183t187.5 -58h27l-15 -76h-26q-175 0 -243.5 72.5t-39.5 224.5l76 385 q19 95 -1.5 150.5t-90.5 76.5z" />
<glyph unicode="|" horiz-adv-x="491" d="M205 -512v1946h82v-1946h-82z" />
<glyph unicode="}" horiz-adv-x="788" d="M23 -512l14 76h26q142 0 211 58t93 183l75 385q36 187 166 242q-109 55 -71 242l88 456q24 125 -22 183.5t-187 58.5h-27l14 76h27q175 0 243.5 -72.5t39.5 -224.5l-90 -457q-19 -95 2 -150.5t90 -76.5l-15 -70q-76 -21 -117.5 -76t-60.5 -151l-76 -385 q-29 -152 -125.5 -224.5t-271.5 -72.5h-26z" />
<glyph unicode="~" horiz-adv-x="1290" d="M123 373l2 10q12 43 24 75.5t30.5 64.5t40 50t52.5 32t68.5 11.5t87.5 -12.5l436 -117q38 -10 68 -11t52 7.5t38.5 22t29.5 37.5t21.5 47.5t18.5 58.5v4l75 -18l-2 -10q-12 -43 -24 -75.5t-30.5 -64.5t-40 -50t-52.5 -32.5t-68.5 -12t-87.5 12.5l-436 117q-38 10 -68 11 t-52 -7.5t-38 -22t-29 -37.5t-21.5 -47.5t-18.5 -58.5v-4z" />
<glyph unicode="&#xa1;" horiz-adv-x="555" d="M145 -463l211 1086h88l-211 -1086h-88zM381 901q0 35 25.5 59.5t60.5 24.5q28 0 44.5 -16.5t16.5 -42.5q0 -35 -27 -60.5t-61 -25.5q-27 0 -43 17t-16 44z" />
<glyph unicode="&#xa2;" horiz-adv-x="995" d="M219 283l78 405q55 277 365 295l47 234h82l-48 -234q156 -7 213 -79.5t29 -215.5l-6 -31l-90 -41l10 52q26 125 -19.5 183t-187.5 58q-143 0 -216 -59t-97 -182l-72 -365q-25 -125 26.5 -183.5t196.5 -58.5q147 0 265 66l47 176h69l-43 -219q-133 -88 -317 -96l-45 -234 h-82l45 234q-305 15 -250 295z" />
<glyph unicode="&#xa3;" d="M86 16q61 96 114.5 147.5t118.5 59.5l181 928q29 152 125.5 224.5t271.5 72.5q178 0 245.5 -73t37.5 -224l-6 -31l-91 -41l11 51q26 124 -21.5 183t-189.5 59q-141 0 -210 -58.5t-93 -183.5l-70 -362h448l-12 -72h-450l-95 -477q14 -3 56 -20l219 -105q49 -23 87.5 -24.5 t71.5 20.5t58 52.5t59 84.5l66 -32q-33 -52 -61.5 -88.5t-64 -67.5t-71.5 -44t-81 -9.5t-95 26.5l-219 105q-49 23 -87 24.5t-71 -21t-57.5 -52.5t-58.5 -84z" />
<glyph unicode="&#xa4;" horiz-adv-x="1007" d="M154 162l137 114q-29 50 -10 148l63 324q19 95 66 145l-93 117l50 41l92 -117q83 51 233 51q157 0 217 -51l138 117l32 -41l-135 -115q28 -57 10 -147l-63 -324q-18 -92 -68 -148l92 -114l-49 -41l-92 115q-83 -50 -233 -50q-153 0 -217 52l-138 -117zM341.5 360 q0.5 -39 18.5 -55l7 -4q66 -55 184 -55q135 0 195.5 46t80.5 148l56 291q20 102 -22 148.5t-179 46.5q-147 0 -201 -49l-10 -11q-44 -44 -63 -135l-58 -291q-9 -41 -8.5 -80z" />
<glyph unicode="&#xa5;" horiz-adv-x="1247" d="M319 1372l13 62h338l-13 -62l-129 -8l209 -762l555 832h185l-13 -62l-123 -8l-534 -801h260l-14 -71h-293l-39 -195h295l-15 -72h-292l-31 -155l141 -9l-12 -61h-371l13 61l141 9l28 155h-294l14 72h295l37 195h-295l14 71h262l-221 801z" />
<glyph unicode="&#xa6;" horiz-adv-x="491" d="M205 307h82v-819h-82v819zM205 614v820h82v-820h-82z" />
<glyph unicode="&#xa7;" horiz-adv-x="1107" d="M35 -369l41 230h71l-24 -183q138 -108 375 -108q178 0 257 65.5t115 233.5q10 46 12 76.5t-7.5 59.5t-25 49t-53 45t-78.5 46.5t-114 55.5q-167 78 -206 102q-95 57 -122 131q-26 72 -4 195q33 170 131 243q-69 80 -36 254q36 180 139.5 251t316.5 71q72 0 125 -7 t97 -23.5t71 -44.5t42 -69t14.5 -97t-15.5 -130l-2 -10l-96 -41l4 25q12 69 14.5 117t-6 84.5t-25.5 57.5t-51 34t-76 17.5t-106 4.5q-68 0 -114.5 -5.5t-89 -20.5t-70 -42t-48.5 -70.5t-34 -105.5q-9 -44 -10.5 -75.5t8.5 -61t28 -51t55.5 -47.5t83 -49t117.5 -56 q163 -74 197 -94q90 -51 116 -118q29 -73 3 -210q-34 -171 -113 -256q50 -81 19 -241q-40 -208 -151 -291.5t-329 -83.5q-173 0 -274 39t-172 104zM351.5 549.5q-1.5 -31.5 8.5 -61t28.5 -51t56 -47.5t83 -49t117.5 -56q17 -8 57 -26t56.5 -26t43.5 -21t45 -24t34 -22 q56 64 84 201q10 46 12 76.5t-7.5 59.5t-25 48.5t-53.5 45t-79 46.5t-114 55q-180 82 -233 119q-78 -56 -103 -192q-9 -44 -10.5 -75.5z" />
<glyph unicode="&#xa8;" horiz-adv-x="610" d="M356 1198q0 26 21.5 46t48.5 20q20 0 33.5 -14.5t13.5 -35.5q0 -26 -21.5 -45.5t-48.5 -19.5q-20 0 -33.5 14.5t-13.5 34.5zM606 1198q0 26 21.5 46t48.5 20q20 0 33.5 -14.5t13.5 -35.5q0 -26 -21.5 -45.5t-48.5 -19.5q-20 0 -33.5 14.5t-13.5 34.5z" />
<glyph unicode="&#xa9;" horiz-adv-x="1617" d="M184 377v680q0 84 16.5 143.5t57.5 108.5t112 78.5t179.5 45t259.5 15.5q153 0 262 -16t179.5 -45.5t111 -79t56.5 -108.5t16 -142v-680q0 -83 -16 -142t-56.5 -108.5t-111 -79t-179.5 -45.5t-262 -16q-151 0 -259.5 15.5t-179.5 45t-112 78.5t-57.5 108.5t-16.5 143.5z M272 403q0 -66 8 -111.5t30 -85t59.5 -64t97.5 -42.5t143 -25t197 -7q138 0 231 11.5t155 34.5t95 65t45.5 93.5t12.5 130.5v627q0 65 -8 111t-30.5 86t-60 64.5t-98.5 42t-144 25t-198 7.5q-114 0 -197 -7.5t-143 -25t-97.5 -42t-59.5 -64.5t-30 -85.5t-8 -111.5v-627z M528 498v426q0 137 71 201.5t224 64.5q152 0 221.5 -65t69.5 -201v-25l-84 -43v53q0 106 -50 151.5t-159 45.5t-157 -45t-48 -152v-395q0 -108 47.5 -153.5t155.5 -45.5q150 0 266 84l41 -65q-131 -103 -307 -103q-150 0 -220.5 65.5t-70.5 201.5z" />
<glyph unicode="&#xaa;" horiz-adv-x="722" d="M313 977l56 285q19 96 81 141t150 45q124 0 197 -84l14 74h70l-125 -637h-70l14 71q-101 -81 -229 -81q-88 0 -132.5 45t-25.5 141zM387 989q-13 -70 12.5 -101.5t87.5 -31.5q57 0 120 25.5t110 79.5l61 315q-27 52 -81 79t-107 27q-129 0 -154 -135z" />
<glyph unicode="&#xab;" horiz-adv-x="870" d="M211 457l10 53l385 358l62 -63l-357 -334l217 -319l-71 -54zM459 457l10 53l385 358l61 -63l-356 -334l217 -319l-71 -54z" />
<glyph unicode="&#xac;" horiz-adv-x="800" d="M123 614v72h555v-246h-82v174h-473z" />
<glyph unicode="&#xad;" horiz-adv-x="841" d="M211 451l14 71h596l-14 -71h-596z" />
<glyph unicode="&#xae;" horiz-adv-x="1617" d="M184 377v680q0 84 16.5 143.5t57.5 108.5t112 78.5t179.5 45t259.5 15.5q153 0 262 -16t179.5 -45.5t111 -79t56.5 -108.5t16 -142v-680q0 -83 -16 -142t-56.5 -108.5t-111 -79t-179.5 -45.5t-262 -16q-151 0 -259.5 15.5t-179.5 45t-112 78.5t-57.5 108.5t-16.5 143.5z M272 403q0 -66 8 -111.5t30 -85t59.5 -64t97.5 -42.5t143 -25t197 -7q138 0 231 11.5t155 34.5t95 65t45.5 93.5t12.5 130.5v627q0 65 -8 111t-30.5 86t-60 64.5t-98.5 42t-144 25t-198 7.5q-114 0 -197 -7.5t-143 -25t-97.5 -42t-59.5 -64.5t-30 -85.5t-8 -111.5v-627z M551 242v938h233q92 0 152.5 -15.5t94.5 -50t47.5 -81.5t13.5 -118v-63q0 -116 -34.5 -173t-137.5 -79l223 -358h-101l-211 348q-14 -2 -47 -2h-145v-346h-88zM639 672h145q134 0 177 41.5t43 154.5v31q0 76 -16.5 116t-64 60.5t-139.5 20.5h-145v-424z" />
<glyph unicode="&#xaf;" horiz-adv-x="718" d="M338 1106l12 59h473l-12 -59h-473z" />
<glyph unicode="&#xb0;" horiz-adv-x="768" d="M123 1186q0 108 76 185t184 77q107 0 184.5 -77.5t77.5 -184.5q0 -108 -77 -184t-185 -76q-109 0 -184.5 75.5t-75.5 184.5zM199 1186q0 -75 54.5 -130t129.5 -55q74 0 130 55t56 130q0 74 -56.5 130t-129.5 56q-74 0 -129 -56t-55 -130z" />
<glyph unicode="&#xb1;" horiz-adv-x="923" d="M123 0v72h678v-72h-678zM123 596v72h303v303h72v-303h303v-72h-303v-303h-72v303h-303z" />
<glyph unicode="&#xb2;" horiz-adv-x="778" d="M223 506l29 145q9 47 26 83t35 59t51.5 45t58.5 34.5t73 32.5l57 25q141 63 187 112.5t67 151.5q6 36 8 59t-4 49.5t-22.5 41t-50.5 24.5t-85 10q-97 0 -149.5 -41.5t-73.5 -150.5l-6 -29l-68 35l2 10q24 131 101.5 188.5t218.5 57.5q137 0 184.5 -56.5t18.5 -201.5 q-10 -50 -23.5 -88.5t-37 -69.5t-44 -51.5t-60.5 -43.5t-69 -36.5t-86 -38.5q-134 -59 -176 -95.5t-55 -109.5l-17 -86h396l32 129h52l-39 -194h-531z" />
<glyph unicode="&#xb3;" horiz-adv-x="802" d="M240 590l36 194h62l-21 -161q73 -58 187 -58q113 0 170.5 47.5t79.5 157.5q21 107 -18.5 144.5t-157.5 37.5h-54l13 66l32 12q103 37 155.5 69t69 58.5t25.5 73.5q8 31 5.5 57.5t-14.5 46.5t-48.5 31.5t-97.5 11.5q-102 0 -156 -40.5t-76 -151.5l-4 -29l-68 35l2 10 q26 134 103 190t221 56q131 0 181.5 -47t27.5 -164q-17 -89 -62.5 -137t-142.5 -86q94 -14 129.5 -69t11.5 -175q-28 -143 -107.5 -207.5t-229.5 -64.5q-56 0 -99.5 8t-74.5 25t-44.5 28t-35.5 31z" />
<glyph unicode="&#xb4;" horiz-adv-x="442" d="M346 1147l141 188h93l-164 -188h-70z" />
<glyph unicode="&#xb5;" horiz-adv-x="1239" d="M160 -512l274 1413l-135 10l12 60h217l-133 -688q-43 -222 172 -222q89 0 192.5 44t182.5 131l129 665l-135 10l12 60h219l-176 -903l135 -9l-10 -59h-219l25 135q-165 -149 -375 -149q-143 0 -195 75l-110 -573h-82z" />
<glyph unicode="&#xb6;" horiz-adv-x="1202" d="M264 723l80 414q29 152 125.5 224.5t271.5 72.5h576l-377 -1948h-82l363 1872h-238l-362 -1872h-82l196 1014q-114 -54 -233 -54q-132 0 -199 67t-39 210zM350 743q-43 -221 172 -221q118 0 230 60l149 776h-174q-143 0 -212 -58.5t-93 -183.5z" />
<glyph unicode="&#xb7;" horiz-adv-x="391" d="M217 475q0 35 25.5 60.5t60.5 25.5q27 0 44.5 -17.5t17.5 -43.5q0 -34 -28 -59t-63 -25q-26 0 -41.5 16.5t-15.5 42.5z" />
<glyph unicode="&#xb8;" horiz-adv-x="606" d="M49 -375l25 47q53 -26 135 -26q100 0 141 29.5t41 117.5q0 35 -27.5 47.5t-93.5 12.5h-12l47 165h60l-35 -116q59 -5 86.5 -25.5t27.5 -66.5q0 -124 -62 -168.5t-189 -44.5q-100 0 -144 28z" />
<glyph unicode="&#xb9;" horiz-adv-x="634" d="M297 502l10 51l119 6l158 809h-195l12 66h271l-170 -875l119 -6l-11 -51h-313z" />
<glyph unicode="&#xba;" horiz-adv-x="747" d="M315 989l50 258q21 103 88 152t198 49q138 0 187 -48.5t28 -152.5l-49 -258q-19 -101 -86 -149.5t-203 -48.5q-135 0 -184.5 47.5t-28.5 150.5zM387 1001q-14 -76 17.5 -110.5t134.5 -34.5q104 0 150.5 34.5t60.5 110.5l45 234q14 78 -18 112.5t-138 34.5 q-102 0 -147.5 -35t-59.5 -112z" />
<glyph unicode="&#xbb;" horiz-adv-x="870" d="M143 162l355 332l-217 321l71 53l246 -358l-10 -53l-385 -359zM391 162l354 332l-217 321l72 53l246 -358l-10 -53l-385 -359z" />
<glyph unicode="&#xbc;" horiz-adv-x="1632" d="M297 502l10 51l119 6l158 809h-195l12 66h271l-170 -875l119 -6l-11 -51h-313zM414 0l882 1434h80l-884 -1434h-78zM918 279l8 43l409 610h82l-395 -588h338l53 277h76l-53 -277h141l-12 -65h-142l-43 -222l117 -6l-10 -51h-313l10 51l121 6l43 222h-430z" />
<glyph unicode="&#xbd;" horiz-adv-x="1662" d="M297 502l10 51l119 6l158 809h-195l12 66h271l-170 -875l119 -6l-11 -51h-313zM416 0l882 1434h80l-884 -1434h-78zM1012 0l28 145q9 47 26 83t35 59t51.5 45t58.5 34.5t73 32.5l57 25q141 63 187 112.5t67 151.5q6 37 8 59t-3.5 49t-22 41.5t-50.5 24.5t-85 10 q-97 0 -149.5 -41.5t-73.5 -150.5l-7 -29l-67 35l2 10q24 131 101 188.5t218 57.5q137 0 184.5 -56.5t18.5 -201.5q-10 -50 -23.5 -88.5t-36.5 -69.5t-44 -51.5t-60.5 -43.5t-68.5 -36.5t-86 -38.5q-135 -60 -177 -96t-55 -108l-16 -86h395l33 129h51l-39 -195h-530z" />
<glyph unicode="&#xbe;" horiz-adv-x="1798" d="M240 590l36 194h62l-21 -161q73 -58 187 -58q113 0 170.5 47.5t79.5 157.5q21 107 -18.5 144.5t-157.5 37.5h-54l13 66l32 12q103 37 155.5 69t69 58.5t25.5 73.5q8 31 5.5 57.5t-14.5 46.5t-48.5 31.5t-97.5 11.5q-102 0 -156 -40.5t-76 -151.5l-4 -29l-68 35l2 10 q26 134 103 190t221 56q131 0 181.5 -47t27.5 -164q-17 -89 -62.5 -137t-142.5 -86q94 -14 129.5 -69t11.5 -175q-28 -143 -107.5 -207.5t-229.5 -64.5q-56 0 -99.5 8t-74.5 25t-44.5 28t-35.5 31zM578 0l882 1434h80l-885 -1434h-77zM1081 279l11 43l407 610h82l-393 -588 h338l53 277h76l-53 -277h141l-14 -65h-142l-43 -222l119 -6l-10 -51h-314l11 51l118 6l43 222h-430z" />
<glyph unicode="&#xbf;" horiz-adv-x="1064" d="M77.5 -277.5q0.5 45.5 12.5 107.5q12 63 32 111.5t38.5 78.5t55.5 62t60.5 47.5t78 48.5t85.5 53q36 23 58 41.5t38 37t27 48t18.5 59t18.5 85.5l23 121h88l-21 -113q-9 -49 -16 -81t-18 -63.5t-16.5 -48.5t-24 -39.5t-27 -32t-37.5 -30.5t-45 -31t-60 -37 q-56 -35 -79.5 -50.5t-59.5 -43t-51 -47t-34 -51t-28.5 -67.5t-17.5 -85q-11 -45 -7.5 -81.5t26 -62.5t89 -40t181.5 -14q70 0 118 5t87.5 19.5t64 35.5t45 59t33.5 83t27 113l4 25l80 -41l-2 -10q-17 -89 -38.5 -147.5t-56.5 -104t-89 -70.5t-129 -37t-183 -12 q-77 0 -131.5 5.5t-97.5 20t-68 36.5t-38.5 57t-13 80.5zM653 913q6 31 31.5 51.5t56.5 20.5t47.5 -20.5t10.5 -51.5t-30.5 -52t-55.5 -21t-48.5 21t-11.5 52z" />
<glyph unicode="&#xc0;" horiz-adv-x="1472" d="M123 0l12 61l121 7l666 1296l-134 8l13 62h270l170 -1366l121 -7l-12 -61h-338l12 61l127 9l-45 352h-576l-180 -352l123 -9l-12 -61h-338zM569 500h527l-105 821zM905 1798h92l68 -188h-70z" />
<glyph unicode="&#xc1;" horiz-adv-x="1472" d="M123 0l12 61l121 7l666 1296l-134 8l13 62h270l170 -1366l121 -7l-12 -61h-338l12 61l127 9l-45 352h-576l-180 -352l123 -9l-12 -61h-338zM569 500h527l-105 821zM1012 1610l141 188h92l-164 -188h-69z" />
<glyph unicode="&#xc2;" horiz-adv-x="1472" d="M123 0l12 61l121 7l666 1296l-134 8l13 62h270l170 -1366l121 -7l-12 -61h-338l12 61l127 9l-45 352h-576l-180 -352l123 -9l-12 -61h-338zM569 500h527l-105 821zM831 1622l236 162h29l174 -162l-39 -41l-150 137l-221 -147z" />
<glyph unicode="&#xc3;" horiz-adv-x="1472" d="M123 0l12 61l121 7l666 1296l-134 8l13 62h270l170 -1366l121 -7l-12 -61h-338l12 61l127 9l-45 352h-576l-180 -352l123 -9l-12 -61h-338zM569 500h527l-105 821zM805 1651q43 57 81.5 87.5t80.5 30.5q39 0 82 -28l65 -43q36 -19 55 -19q41 0 105 84l49 -39 q-90 -116 -164 -116q-39 0 -80 28h2l-77 47q-18 13 -50 13q-24 0 -47 -20t-57 -62z" />
<glyph unicode="&#xc4;" horiz-adv-x="1472" d="M123 0l12 61l121 7l666 1296l-134 8l13 62h270l170 -1366l121 -7l-12 -61h-338l12 61l127 9l-45 352h-576l-180 -352l123 -9l-12 -61h-338zM569 500h527l-105 821zM877 1661q0 26 21 45.5t48 19.5q20 0 33.5 -14.5t13.5 -34.5q0 -26 -21 -45.5t-48 -19.5 q-20 0 -33.5 14.5t-13.5 34.5zM1126 1661q0 26 21.5 45.5t48.5 19.5q20 0 33.5 -14.5t13.5 -34.5q0 -26 -21 -45.5t-48 -19.5q-20 0 -34 14.5t-14 34.5z" />
<glyph unicode="&#xc5;" horiz-adv-x="1472" d="M123 0l12 61l121 7l666 1296l-134 8l13 62h270l170 -1366l121 -7l-12 -61h-338l12 61l127 9l-45 352h-576l-180 -352l123 -9l-12 -61h-338zM569 500h527l-105 821zM887 1712q0 84 65 146.5t150 62.5q65 0 107 -43.5t42 -108.5q0 -85 -66.5 -145.5t-152.5 -60.5 q-65 0 -105 42t-40 107zM948 1720q0 -42 26 -69t70 -27q59 0 101.5 39.5t42.5 97.5q0 42 -27 70.5t-69 28.5q-59 0 -101.5 -41t-42.5 -99z" />
<glyph unicode="&#xc6;" horiz-adv-x="1929" d="M20 0l13 61l151 9l1059 1294l-127 8l12 62h977l-45 -230h-61l20 152h-622l-103 -529h480l38 152h62l-74 -381h-61l18 152h-479l-131 -672h622l41 151h62l-45 -229h-924l12 61l144 9l67 352h-551l-344 -422h-211zM639 500h502l157 803z" />
<glyph unicode="&#xc7;" horiz-adv-x="1136" d="M197 377l133 680q75 391 530 391q226 0 310.5 -95.5t50.5 -295.5l-4 -25l-99 -41l8 39q38 184 -28 260t-256 76t-291 -76t-137 -260l-121 -627q-35 -181 36 -258t259 -77q213 0 385 102l49 184h61l-45 -229q-205 -139 -469 -139l-24 -84q59 -5 86.5 -25.5t27.5 -66.5 q0 -124 -62 -168.5t-189 -44.5q-100 0 -144 28l25 47q53 -26 135 -26q100 0 141 29.5t41 117.5q0 35 -27.5 47.5t-93.5 12.5h-12l37 135q-386 24 -313 389z" />
<glyph unicode="&#xc8;" horiz-adv-x="1148" d="M123 0l12 61l144 9l249 1292l-139 10l12 62h924l-45 -230h-61l20 152h-623l-102 -529h479l39 152h62l-74 -381h-62l19 152h-479l-131 -672h622l41 151h62l-45 -229h-924zM825 1798h93l67 -188h-70z" />
<glyph unicode="&#xc9;" horiz-adv-x="1169" d="M123 0l12 61l144 9l249 1292l-139 10l12 62h924l-45 -230h-61l20 152h-623l-102 -529h479l39 152h62l-74 -381h-62l19 152h-479l-131 -672h622l41 151h62l-45 -229h-924zM926 1610l141 188h92l-164 -188h-69z" />
<glyph unicode="&#xca;" horiz-adv-x="1148" d="M123 0l12 61l144 9l249 1292l-139 10l12 62h924l-45 -230h-61l20 152h-623l-102 -529h479l39 152h62l-74 -381h-62l19 152h-479l-131 -672h622l41 151h62l-45 -229h-924zM731 1622l236 162h28l174 -162l-39 -41l-149 137l-221 -147z" />
<glyph unicode="&#xcb;" horiz-adv-x="1148" d="M123 0l12 61l144 9l249 1292l-139 10l12 62h924l-45 -230h-61l20 152h-623l-102 -529h479l39 152h62l-74 -381h-62l19 152h-479l-131 -672h622l41 151h62l-45 -229h-924zM776 1661q0 26 21.5 45.5t48.5 19.5q20 0 33.5 -14.5t13.5 -34.5q0 -26 -21.5 -45.5t-48.5 -19.5 q-20 0 -33.5 14.5t-13.5 34.5zM1026 1661q0 26 21.5 45.5t48.5 19.5q20 0 33.5 -14.5t13.5 -34.5q0 -26 -21.5 -45.5t-48.5 -19.5q-20 0 -33.5 14.5t-13.5 34.5z" />
<glyph unicode="&#xcc;" horiz-adv-x="616" d="M123 0l12 61l144 9l249 1292l-139 10l12 62h371l-12 -62l-144 -8l-249 -1294l139 -9l-12 -61h-371zM498 1798h92l67 -188h-69z" />
<glyph unicode="&#xcd;" horiz-adv-x="616" d="M123 0l12 61l144 9l249 1292l-139 10l12 62h371l-12 -62l-144 -8l-249 -1294l139 -9l-12 -61h-371zM584 1610l141 188h92l-164 -188h-69z" />
<glyph unicode="&#xce;" horiz-adv-x="616" d="M123 0l12 61l144 9l249 1292l-139 10l12 62h371l-12 -62l-144 -8l-249 -1294l139 -9l-12 -61h-371zM406 1622l235 162h29l174 -162l-39 -41l-150 137l-221 -147z" />
<glyph unicode="&#xcf;" horiz-adv-x="616" d="M123 0l12 61l144 9l249 1292l-139 10l12 62h371l-12 -62l-144 -8l-249 -1294l139 -9l-12 -61h-371zM449 1661q0 26 21 45.5t48 19.5q20 0 33.5 -14.5t13.5 -34.5q0 -26 -21 -45.5t-48 -19.5q-20 0 -33.5 14.5t-13.5 34.5zM698 1661q0 26 21.5 45.5t48.5 19.5 q20 0 33.5 -14.5t13.5 -34.5q0 -26 -21.5 -45.5t-48.5 -19.5q-20 0 -33.5 14.5t-13.5 34.5z" />
<glyph unicode="&#xd0;" horiz-adv-x="1361" d="M125 0l12 61l144 9l127 659h-205l14 72h205l108 561l-139 10l12 62h549q272 0 369.5 -94.5t58.5 -297.5l-127 -651q-39 -203 -173 -297t-406 -94h-549zM371 82h319q232 0 338 74.5t141 261.5l115 598q37 187 -39.5 261.5t-308.5 74.5h-320l-106 -551h303l-14 -72h-303z " />
<glyph unicode="&#xd1;" horiz-adv-x="1490" d="M123 0l12 61l144 9l249 1292l-139 10l12 62h236l512 -1272l233 1200l-139 10l12 62h371l-12 -62l-144 -8l-264 -1364h-94l-512 1276l-233 -1206l139 -9l-12 -61h-371zM811 1651q43 57 81.5 87.5t80.5 30.5q39 0 82 -28l65 -43q36 -19 56 -19q40 0 104 84l49 -39 q-90 -116 -164 -116q-39 0 -80 28h2l-77 47q-18 13 -49 13q-24 0 -48 -20t-57 -62z" />
<glyph unicode="&#xd2;" horiz-adv-x="1351" d="M256 377l133 680q39 204 170 297.5t397 93.5q138 0 228 -24t137.5 -73t59 -122.5t-8.5 -171.5l-133 -680q-26 -135 -87 -218.5t-178.5 -128t-299.5 -44.5q-265 0 -361 94t-57 297zM343.5 205.5q19.5 -74.5 99 -106t245.5 -31.5q125 0 205.5 16.5t134 58.5t81.5 102 t46 158l121 627q28 123 3.5 197.5t-104.5 106.5t-237 32q-156 0 -248.5 -33t-142.5 -104.5t-74 -198.5l-121 -627q-28 -123 -8.5 -197.5zM825 1798h93l67 -188h-70z" />
<glyph unicode="&#xd3;" horiz-adv-x="1351" d="M256 377l133 680q39 204 170 297.5t397 93.5q138 0 228 -24t137.5 -73t59 -122.5t-8.5 -171.5l-133 -680q-26 -135 -87 -218.5t-178.5 -128t-299.5 -44.5q-265 0 -361 94t-57 297zM343.5 205.5q19.5 -74.5 99 -106t245.5 -31.5q125 0 205.5 16.5t134 58.5t81.5 102 t46 158l121 627q28 123 3.5 197.5t-104.5 106.5t-237 32q-156 0 -248.5 -33t-142.5 -104.5t-74 -198.5l-121 -627q-28 -123 -8.5 -197.5zM932 1610l141 188h92l-164 -188h-69z" />
<glyph unicode="&#xd4;" horiz-adv-x="1351" d="M256 377l133 680q39 204 170 297.5t397 93.5q138 0 228 -24t137.5 -73t59 -122.5t-8.5 -171.5l-133 -680q-26 -135 -87 -218.5t-178.5 -128t-299.5 -44.5q-265 0 -361 94t-57 297zM343.5 205.5q19.5 -74.5 99 -106t245.5 -31.5q125 0 205.5 16.5t134 58.5t81.5 102 t46 158l121 627q28 123 3.5 197.5t-104.5 106.5t-237 32q-156 0 -248.5 -33t-142.5 -104.5t-74 -198.5l-121 -627q-28 -123 -8.5 -197.5zM772 1622l236 162h28l174 -162l-39 -41l-149 137l-221 -147z" />
<glyph unicode="&#xd5;" horiz-adv-x="1351" d="M256 377l133 680q39 204 170 297.5t397 93.5q138 0 228 -24t137.5 -73t59 -122.5t-8.5 -171.5l-133 -680q-26 -135 -87 -218.5t-178.5 -128t-299.5 -44.5q-265 0 -361 94t-57 297zM343.5 205.5q19.5 -74.5 99 -106t245.5 -31.5q125 0 205.5 16.5t134 58.5t81.5 102 t46 158l121 627q28 123 3.5 197.5t-104.5 106.5t-237 32q-156 0 -248.5 -33t-142.5 -104.5t-74 -198.5l-121 -627q-28 -123 -8.5 -197.5zM745 1651q43 57 81.5 87.5t80.5 30.5q39 0 82 -28l66 -43q36 -19 55 -19q40 0 104 84l50 -39q-90 -116 -164 -116q-39 0 -80 28h2 l-78 47q-18 13 -49 13q-24 0 -47 -20t-57 -62z" />
<glyph unicode="&#xd6;" horiz-adv-x="1249" d="M195 377l133 680q39 204 170 297.5t397 93.5q138 0 228 -24t137.5 -73t59 -122.5t-8.5 -171.5l-133 -680q-26 -135 -87.5 -219t-179 -128t-299.5 -44q-265 0 -360.5 94t-56.5 297zM282.5 205.5q19.5 -74.5 99 -106t245.5 -31.5q125 0 205.5 16.5t134 58.5t81.5 102 t46 158l120 627q28 123 3.5 197.5t-104 106.5t-236.5 32q-156 0 -248.5 -33t-142.5 -104.5t-74 -198.5l-121 -627q-28 -123 -8.5 -197.5zM766 1661q0 26 21.5 45.5t48.5 19.5q20 0 33.5 -14.5t13.5 -34.5q0 -26 -21.5 -45.5t-48.5 -19.5q-20 0 -33.5 14.5t-13.5 34.5z M1016 1661q0 26 21 45.5t48 19.5q20 0 34 -14.5t14 -34.5q0 -26 -21.5 -45.5t-48.5 -19.5q-20 0 -33.5 14.5t-13.5 34.5z" />
<glyph unicode="&#xd7;" horiz-adv-x="776" d="M123 272l213 213l-213 215l51 52l213 -215l215 215l51 -52l-215 -215l215 -213l-51 -51l-215 213l-213 -213z" />
<glyph unicode="&#xd8;" horiz-adv-x="1351" d="M256 377l133 680q39 204 170 297.5t397 93.5q138 0 228 -24t137.5 -73t59 -122.5t-8.5 -171.5l-133 -680q-26 -135 -87 -218.5t-178.5 -128t-299.5 -44.5q-265 0 -361 94t-57 297zM339.5 222.5q12.5 -71.5 70.5 -107.5l753 1222q-80 29 -225 29q-156 0 -248.5 -33 t-142.5 -104.5t-74 -198.5l-121 -627q-25 -109 -12.5 -180.5zM479 86q79 -18 209 -18q125 0 205.5 16.5t134 58.5t81.5 102t46 158l121 627q21 99 10 165.5t-57 104.5z" />
<glyph unicode="&#xd9;" horiz-adv-x="1429" d="M326 377l192 985l-139 10l12 62h371l-12 -62l-144 -8l-186 -961q-28 -123 -11.5 -197.5t90 -106t228.5 -31.5t242 33.5t129 102.5t67 199l201 1031h229l-12 -62l-145 -10l-191 -985q-20 -101 -56.5 -172t-99 -121.5t-155.5 -74t-223 -23.5q-250 0 -338 93.5t-49 297.5z M905 1798h92l68 -188h-70z" />
<glyph unicode="&#xda;" horiz-adv-x="1429" d="M326 377l192 985l-139 10l12 62h371l-12 -62l-144 -8l-186 -961q-28 -123 -11.5 -197.5t90 -106t228.5 -31.5t242 33.5t129 102.5t67 199l201 1031h229l-12 -62l-145 -10l-191 -985q-20 -101 -56.5 -172t-99 -121.5t-155.5 -74t-223 -23.5q-250 0 -338 93.5t-49 297.5z M1012 1610l141 188h92l-164 -188h-69z" />
<glyph unicode="&#xdb;" horiz-adv-x="1429" d="M326 377l192 985l-139 10l12 62h371l-12 -62l-144 -8l-186 -961q-28 -123 -11.5 -197.5t90 -106t228.5 -31.5t242 33.5t129 102.5t67 199l201 1031h229l-12 -62l-145 -10l-191 -985q-20 -101 -56.5 -172t-99 -121.5t-155.5 -74t-223 -23.5q-250 0 -338 93.5t-49 297.5z M811 1622l236 162h28l174 -162l-39 -41l-149 137l-221 -147z" />
<glyph unicode="&#xdc;" horiz-adv-x="1449" d="M336 377l192 985l-139 10l12 62h371l-12 -62l-144 -8l-186 -961q-28 -123 -11.5 -197.5t90 -106t228.5 -31.5q117 0 192.5 16.5t125.5 58.5t76 102t45 158l200 1031h230l-13 -62l-145 -10l-191 -985q-20 -101 -56.5 -172t-99 -121.5t-155.5 -74t-223 -23.5 q-250 0 -338 93.5t-49 297.5zM866 1661q0 26 21.5 45.5t48.5 19.5q20 0 33.5 -14.5t13.5 -34.5q0 -26 -21.5 -45.5t-48.5 -19.5q-20 0 -33.5 14.5t-13.5 34.5zM1116 1661q0 26 21.5 45.5t48.5 19.5q20 0 33.5 -14.5t13.5 -34.5q0 -26 -21.5 -45.5t-48.5 -19.5 q-20 0 -33.5 14.5t-13.5 34.5z" />
<glyph unicode="&#xdd;" horiz-adv-x="1411" d="M399 1372l13 62h338l-13 -62l-129 -8l209 -762l555 832h184l-12 -62l-123 -8l-581 -872l-82 -422l141 -9l-12 -61h-371l12 61l142 9l82 422l-242 872zM989 1610l141 188h93l-164 -188h-70z" />
<glyph unicode="&#xde;" horiz-adv-x="1185" d="M123 0l12 61l144 9l249 1292l-139 10l12 62h230l-47 -246h247q183 0 277.5 -42.5t116 -129.5t-5.5 -219l-33 -160q-21 -104 -55 -173.5t-95 -120.5t-156 -74t-233 -23h-248l-47 -246h-229zM416 328h248q118 0 193.5 17t125.5 59t76 102t45 158l20 106q27 123 10 197.5 t-90.5 106.5t-228.5 32h-248z" />
<glyph unicode="&#xdf;" horiz-adv-x="1148" d="M104 0l13 59l137 9l197 1009q38 204 148 287.5t308 83.5q189 0 259.5 -73.5t37.5 -244.5q-29 -149 -107.5 -222.5t-248.5 -133.5q66 -5 113.5 -18.5t84.5 -41t53 -69t20 -103t-15 -143.5q-42 -216 -160 -314.5t-342 -98.5q-92 0 -184 18l31 74q77 -17 157 -17 q186 0 283.5 79.5t132.5 260.5q11 60 11.5 105.5t-11.5 79t-34.5 56t-60 36t-84.5 19t-112 5.5h-67l12 76l41 17q101 36 171 68.5t111.5 60t66 61t34.5 60t18 69.5q7 33 9.5 57.5t1.5 52.5t-9.5 48.5t-26 40.5t-44.5 32t-69 19.5t-97 7.5q-75 0 -129.5 -14.5t-101 -50 t-77.5 -99t-49 -157.5l-204 -1051h-218z" />
<glyph unicode="&#xe0;" d="M174 262l86 447q28 143 120.5 209.5t225.5 66.5q207 0 316 -151l26 137h82l-174 -903l135 -9l-12 -59h-219l26 135q-165 -149 -374 -149q-132 0 -199 66.5t-39 209.5zM262 283q-43 -222 170 -222q89 0 192.5 44t182.5 131l96 499q-44 87 -130.5 130.5t-176.5 43.5 q-213 0 -256 -221zM547 1335h92l68 -188h-70z" />
<glyph unicode="&#xe1;" d="M174 262l86 447q28 143 120.5 209.5t225.5 66.5q207 0 316 -151l26 137h82l-174 -903l135 -9l-12 -59h-219l26 135q-165 -149 -374 -149q-132 0 -199 66.5t-39 209.5zM262 283q-43 -222 170 -222q89 0 192.5 44t182.5 131l96 499q-44 87 -130.5 130.5t-176.5 43.5 q-213 0 -256 -221zM674 1147l141 188h92l-164 -188h-69z" />
<glyph unicode="&#xe2;" d="M174 262l86 447q28 143 120.5 209.5t225.5 66.5q207 0 316 -151l26 137h82l-174 -903l135 -9l-12 -59h-219l26 135q-165 -149 -374 -149q-132 0 -199 66.5t-39 209.5zM262 283q-43 -222 170 -222q89 0 192.5 44t182.5 131l96 499q-44 87 -130.5 130.5t-176.5 43.5 q-213 0 -256 -221zM473 1159l236 162h28l174 -162l-39 -41l-149 137l-221 -147z" />
<glyph unicode="&#xe3;" d="M174 262l86 447q28 143 120.5 209.5t225.5 66.5q207 0 316 -151l26 137h82l-174 -903l135 -9l-12 -59h-219l26 135q-165 -149 -374 -149q-132 0 -199 66.5t-39 209.5zM262 283q-43 -222 170 -222q89 0 192.5 44t182.5 131l96 499q-44 87 -130.5 130.5t-176.5 43.5 q-213 0 -256 -221zM446 1188q43 58 81.5 88.5t80.5 30.5q37 0 82 -29l66 -43q34 -18 55 -18q41 0 104 83l50 -38q-90 -117 -164 -117q-38 0 -80 29h2l-78 47q-17 12 -49 12q-24 0 -47 -20t-57 -62z" />
<glyph unicode="&#xe4;" d="M174 262l86 447q28 143 120.5 209.5t225.5 66.5q207 0 316 -151l26 137h82l-174 -903l135 -9l-12 -59h-219l26 135q-165 -149 -374 -149q-132 0 -199 66.5t-39 209.5zM262 283q-43 -222 170 -222q89 0 192.5 44t182.5 131l96 499q-44 87 -130.5 130.5t-176.5 43.5 q-213 0 -256 -221zM522 1198q0 26 21.5 46t48.5 20q20 0 33.5 -14.5t13.5 -35.5q0 -26 -21.5 -45.5t-48.5 -19.5q-20 0 -33.5 14.5t-13.5 34.5zM772 1198q0 26 21.5 46t48.5 20q20 0 33.5 -14.5t13.5 -35.5q0 -26 -21.5 -45.5t-48.5 -19.5q-20 0 -33.5 14.5t-13.5 34.5z" />
<glyph unicode="&#xe5;" d="M174 262l86 447q28 143 120.5 209.5t225.5 66.5q207 0 316 -151l26 137h82l-174 -903l135 -9l-12 -59h-219l26 135q-165 -149 -374 -149q-132 0 -199 66.5t-39 209.5zM262 283q-43 -222 170 -222q89 0 192.5 44t182.5 131l96 499q-44 87 -130.5 130.5t-176.5 43.5 q-213 0 -256 -221zM520 1249q0 84 65 146.5t150 62.5q66 0 108 -43t42 -108q0 -85 -66.5 -146t-152.5 -61q-65 0 -105.5 42t-40.5 107zM582 1257q0 -42 26 -69t70 -27q59 0 101 39.5t42 97.5q0 42 -27 70.5t-69 28.5q-59 0 -101 -41t-42 -99z" />
<glyph unicode="&#xe6;" horiz-adv-x="1624" d="M212.5 134.5q-10.5 52.5 2.5 127.5l86 447q28 143 120.5 209.5t225.5 66.5q207 0 316 -151l26 137h82l-16 -88q43 53 111.5 77.5t176.5 24.5q184 0 252.5 -72.5t38.5 -224.5l-45 -235h-616l-29 -150q-24 -126 23 -184t194 -58q161 0 283 66l47 176h70l-43 -219 q-148 -98 -373 -98q-205 0 -244 102l-18 -88h-82l26 135q-165 -149 -374 -149q-64 0 -112 15t-83 48t-45.5 85.5zM303 283q-43 -222 166 -222q93 0 196.5 43.5t182.5 131.5l96 499q-44 88 -130.5 131t-180.5 43q-209 0 -252 -221zM987 524h535l28 144q24 125 -25 183 t-198 58q-148 0 -217.5 -58t-93.5 -183z" />
<glyph unicode="&#xe7;" horiz-adv-x="933" d="M156 -375l24 47q53 -26 135 -26q100 0 141.5 29.5t41.5 117.5q0 35 -27.5 47.5t-93.5 12.5h-12l38 137q-277 24 -225 293l80 405q57 297 410 297q177 0 242.5 -72.5t35.5 -224.5l-6 -31l-90 -41l10 52q26 125 -19.5 183t-187.5 58q-143 0 -217 -59t-98 -182l-72 -365 q-25 -125 26.5 -183.5t196.5 -58.5q147 0 265 66l47 176h69l-43 -219q-144 -98 -358 -98h-8l-25 -84q59 -5 87 -25.5t28 -66.5q0 -124 -62.5 -168.5t-189.5 -44.5q-99 0 -143 28z" />
<glyph unicode="&#xe8;" horiz-adv-x="946" d="M178 283l80 405q29 153 127.5 225t280.5 72q185 0 253.5 -72.5t38.5 -224.5l-45 -235h-618l-29 -150q-24 -126 23 -184t194 -58q161 0 283 66l47 176h70l-43 -219q-61 -42 -157.5 -70t-215.5 -28q-179 0 -248.5 72.5t-40.5 224.5zM309 524h535l28 144q24 125 -24 183 t-197 58q-148 0 -218.5 -58t-94.5 -183zM588 1335h92l68 -188h-70z" />
<glyph unicode="&#xe9;" horiz-adv-x="946" d="M178 283l80 405q29 153 127.5 225t280.5 72q185 0 253.5 -72.5t38.5 -224.5l-45 -235h-618l-29 -150q-24 -126 23 -184t194 -58q161 0 283 66l47 176h70l-43 -219q-61 -42 -157.5 -70t-215.5 -28q-179 0 -248.5 72.5t-40.5 224.5zM309 524h535l28 144q24 125 -24 183 t-197 58q-148 0 -218.5 -58t-94.5 -183zM698 1147l142 188h92l-164 -188h-70z" />
<glyph unicode="&#xea;" horiz-adv-x="946" d="M178 283l80 405q29 153 127.5 225t280.5 72q185 0 253.5 -72.5t38.5 -224.5l-45 -235h-618l-29 -150q-24 -126 23 -184t194 -58q161 0 283 66l47 176h70l-43 -219q-61 -42 -157.5 -70t-215.5 -28q-179 0 -248.5 72.5t-40.5 224.5zM309 524h535l28 144q24 125 -24 183 t-197 58q-148 0 -218.5 -58t-94.5 -183zM475 1159l236 162h28l174 -162l-39 -41l-149 137l-221 -147z" />
<glyph unicode="&#xeb;" horiz-adv-x="946" d="M178 283l80 405q29 153 127.5 225t280.5 72q185 0 253.5 -72.5t38.5 -224.5l-45 -235h-618l-29 -150q-24 -126 23 -184t194 -58q161 0 283 66l47 176h70l-43 -219q-61 -42 -157.5 -70t-215.5 -28q-179 0 -248.5 72.5t-40.5 224.5zM309 524h535l28 144q24 125 -24 183 t-197 58q-148 0 -218.5 -58t-94.5 -183zM545 1198q0 26 21 46t48 20q20 0 34 -15t14 -35q0 -26 -21.5 -45.5t-48.5 -19.5q-20 0 -33.5 14.5t-13.5 34.5zM795 1198q0 26 21 46t48 20q20 0 33.5 -14.5t13.5 -35.5q0 -26 -21 -45.5t-48 -19.5q-20 0 -33.5 14.5t-13.5 34.5z" />
<glyph unicode="&#xec;" horiz-adv-x="454" d="M250 0l188 971h82l-188 -971h-82zM383 1335h92l68 -188h-70z" />
<glyph unicode="&#xed;" horiz-adv-x="456" d="M123 0l188 971h82l-188 -971h-82zM360 1147l142 188h92l-164 -188h-70z" />
<glyph unicode="&#xee;" horiz-adv-x="684" d="M305 0l189 971h81l-188 -971h-82zM348 1159l236 162h28l174 -162l-38 -41l-150 137l-221 -147z" />
<glyph unicode="&#xef;" horiz-adv-x="610" d="M264 0l189 971h82l-189 -971h-82zM356 1198q0 26 21.5 46t48.5 20q20 0 33.5 -14.5t13.5 -35.5q0 -26 -21.5 -45.5t-48.5 -19.5q-20 0 -33.5 14.5t-13.5 34.5zM606 1198q0 26 21.5 46t48.5 20q20 0 33.5 -14.5t13.5 -35.5q0 -26 -21.5 -45.5t-48.5 -19.5 q-20 0 -33.5 14.5t-13.5 34.5z" />
<glyph unicode="&#xf0;" horiz-adv-x="1044" d="M219 283l80 405q29 151 125.5 224t267.5 73q146 0 250 -51l41 213l-272 -55v69l276 58q-5 56 -39 95.5t-112 59.5l49 74q103 -25 146 -78t46 -133l137 29l3 -70l-146 -31l-172 -882q-30 -151 -124.5 -224t-272.5 -73q-175 0 -243.5 72.5t-39.5 224.5zM307 303 q-24 -125 22 -183.5t187 -58.5t210 58.5t93 183.5l105 541q-93 65 -244 65q-141 0 -209 -57.5t-92 -183.5z" />
<glyph unicode="&#xf1;" horiz-adv-x="1239" d="M123 0l12 59l137 9l164 833l-137 10l12 60h219l-26 -137q167 151 375 151q132 0 198.5 -66.5t38.5 -209.5l-125 -641l137 -9l-12 -59h-356l12 59l137 9l121 620q43 221 -172 221q-89 0 -191.5 -43.5t-181.5 -130.5l-131 -667l138 -9l-13 -59h-356zM545 1188 q43 58 81.5 88.5t80.5 30.5q36 0 81 -29l66 -43q34 -18 55 -18q42 0 105 83l49 -38q-90 -117 -164 -117q-38 0 -80 29h2l-78 47q-17 12 -49 12q-24 0 -47 -20t-57 -62z" />
<glyph unicode="&#xf2;" horiz-adv-x="1007" d="M178 283l80 405q30 153 132.5 225t303.5 72q208 0 282 -71.5t44 -225.5l-80 -405q-30 -154 -130 -225.5t-306 -71.5q-203 0 -279.5 71.5t-46.5 225.5zM266 303q-25 -127 27.5 -184.5t222.5 -57.5q116 0 187.5 28t106 79t50.5 135l72 365q25 127 -28 184t-224 57 q-168 0 -243 -57.5t-99 -183.5zM604 1335h92l68 -188h-70z" />
<glyph unicode="&#xf3;" horiz-adv-x="1007" d="M178 283l80 405q30 153 132.5 225t303.5 72q208 0 282 -71.5t44 -225.5l-80 -405q-30 -154 -130 -225.5t-306 -71.5q-203 0 -279.5 71.5t-46.5 225.5zM266 303q-25 -127 27.5 -184.5t222.5 -57.5q116 0 187.5 28t106 79t50.5 135l72 365q25 127 -28 184t-224 57 q-168 0 -243 -57.5t-99 -183.5zM725 1147l141 188h92l-163 -188h-70z" />
<glyph unicode="&#xf4;" horiz-adv-x="1007" d="M178 283l80 405q30 153 132.5 225t303.5 72q208 0 282 -71.5t44 -225.5l-80 -405q-30 -154 -130 -225.5t-306 -71.5q-203 0 -279.5 71.5t-46.5 225.5zM266 303q-25 -127 27.5 -184.5t222.5 -57.5q116 0 187.5 28t106 79t50.5 135l72 365q25 127 -28 184t-224 57 q-168 0 -243 -57.5t-99 -183.5zM504 1159l235 162h29l174 -162l-39 -41l-149 137l-222 -147z" />
<glyph unicode="&#xf5;" horiz-adv-x="1007" d="M178 283l80 405q30 153 132.5 225t303.5 72q208 0 282 -71.5t44 -225.5l-80 -405q-30 -154 -130 -225.5t-306 -71.5q-203 0 -279.5 71.5t-46.5 225.5zM266 303q-25 -127 27.5 -184.5t222.5 -57.5q116 0 187.5 28t106 79t50.5 135l72 365q25 127 -28 184t-224 57 q-168 0 -243 -57.5t-99 -183.5zM479 1188q43 58 81.5 88.5t80.5 30.5q37 0 82 -29l65 -43q35 -18 56 -18q41 0 104 83l49 -38q-90 -117 -163 -117q-38 0 -80 29h2l-78 47q-17 12 -49 12q-24 0 -48 -20t-57 -62z" />
<glyph unicode="&#xf6;" horiz-adv-x="1007" d="M178 283l80 405q30 153 132.5 225t303.5 72q208 0 282 -71.5t44 -225.5l-80 -405q-30 -154 -130 -225.5t-306 -71.5q-203 0 -279.5 71.5t-46.5 225.5zM266 303q-25 -127 27.5 -184.5t222.5 -57.5q116 0 187.5 28t106 79t50.5 135l72 365q25 127 -28 184t-224 57 q-168 0 -243 -57.5t-99 -183.5zM555 1198q0 26 21.5 46t48.5 20q20 0 33.5 -14.5t13.5 -35.5q0 -26 -21.5 -45.5t-48.5 -19.5q-20 0 -33.5 14.5t-13.5 34.5zM805 1198q0 26 21 46t48 20q20 0 34 -15t14 -35q0 -26 -21.5 -45.5t-48.5 -19.5q-20 0 -33.5 14.5t-13.5 34.5z" />
<glyph unicode="&#xf7;" horiz-adv-x="923" d="M123 451v71h678v-71h-678zM389 221q0 31 20.5 52.5t51.5 21.5t52.5 -21.5t21.5 -52.5q0 -30 -21.5 -50.5t-52.5 -20.5t-51.5 20t-20.5 51zM389 748q0 31 20.5 52t51.5 21t52.5 -21t21.5 -52t-21.5 -51.5t-52.5 -20.5t-51.5 20.5t-20.5 51.5z" />
<glyph unicode="&#xf8;" horiz-adv-x="1089" d="M219 283l80 405q30 153 132.5 225t303.5 72q208 0 282 -71.5t44 -225.5l-80 -405q-30 -154 -130 -225.5t-306 -71.5q-203 0 -279.5 71.5t-46.5 225.5zM304.5 174q14.5 -54 66.5 -82l493 801q-59 16 -143 16q-168 0 -243 -57.5t-99 -183.5l-72 -365q-17 -75 -2.5 -129z M444 70q50 -9 113 -9q116 0 187.5 28t106 79t50.5 135l72 365q14 65 5 114t-44 78z" />
<glyph unicode="&#xf9;" horiz-adv-x="1239" d="M301 911l10 60h219l-133 -688q-43 -222 172 -222q89 0 192.5 44t182.5 131l129 665l-135 10l10 60h219l-174 -903l135 -9l-12 -59h-219l27 135q-165 -149 -375 -149q-64 0 -112 15t-83 48t-45.5 85.5t2.5 127.5l125 639zM719 1335h92l68 -188h-70z" />
<glyph unicode="&#xfa;" horiz-adv-x="1239" d="M301 911l10 60h219l-133 -688q-43 -222 172 -222q89 0 192.5 44t182.5 131l129 665l-135 10l10 60h219l-174 -903l135 -9l-12 -59h-219l27 135q-165 -149 -375 -149q-64 0 -112 15t-83 48t-45.5 85.5t2.5 127.5l125 639zM831 1147l142 188h92l-164 -188h-70z" />
<glyph unicode="&#xfb;" horiz-adv-x="1239" d="M301 911l10 60h219l-133 -688q-43 -222 172 -222q89 0 192.5 44t182.5 131l129 665l-135 10l10 60h219l-174 -903l135 -9l-12 -59h-219l27 135q-165 -149 -375 -149q-64 0 -112 15t-83 48t-45.5 85.5t2.5 127.5l125 639zM625 1159l235 162h29l174 -162l-39 -41l-150 137 l-221 -147z" />
<glyph unicode="&#xfc;" horiz-adv-x="1239" d="M301 911l10 60h219l-133 -688q-43 -222 172 -222q89 0 192.5 44t182.5 131l129 665l-135 10l10 60h219l-174 -903l135 -9l-12 -59h-219l27 135q-165 -149 -375 -149q-64 0 -112 15t-83 48t-45.5 85.5t2.5 127.5l125 639zM676 1198q0 26 21 46t48 20q20 0 34 -15t14 -35 q0 -26 -21.5 -45.5t-48.5 -19.5q-20 0 -33.5 14.5t-13.5 34.5zM926 1198q0 26 21 46t48 20q20 0 33.5 -14.5t13.5 -35.5q0 -26 -21 -45.5t-48 -19.5q-20 0 -33.5 14.5t-13.5 34.5z" />
<glyph unicode="&#xfd;" horiz-adv-x="1263" d="M184 -512l13 59l141 11l240 432l-158 913l-121 8l12 60h357l-13 -60l-147 -10l135 -795l483 865h203l-12 -60l-143 -10l-791 -1413h-199zM831 1147l142 188h92l-164 -188h-70z" />
<glyph unicode="&#xfe;" d="M-18 -512l12 59l139 11l350 1806l-135 10l12 60h220l-117 -600q165 151 375 151q132 0 198.5 -66.5t38.5 -209.5l-88 -447q-28 -143 -120 -209.5t-224 -66.5q-210 0 -317 149l-125 -647h-219zM346 236q44 -87 130 -131t175 -44q215 0 258 222l78 405q43 221 -170 221 q-89 0 -192.5 -43.5t-182.5 -130.5z" />
<glyph unicode="&#xff;" horiz-adv-x="1058" d="M82 -512l12 59l142 11l239 432l-158 913l-120 8l12 60h356l-12 -60l-147 -10l135 -795l483 865h203l-13 -60l-143 -10l-790 -1413h-199zM580 1198q0 26 21 46t48 20q20 0 33.5 -14.5t13.5 -35.5q0 -26 -21 -45.5t-48 -19.5q-20 0 -33.5 14.5t-13.5 34.5zM829 1198 q0 26 21.5 46t48.5 20q20 0 33.5 -14.5t13.5 -35.5q0 -26 -21 -45.5t-48 -19.5q-20 0 -34 14.5t-14 34.5z" />
<glyph unicode="&#x152;" horiz-adv-x="1982" d="M256 377l133 680q39 203 174.5 297t403.5 94q308 0 385 -133l24 119h783l-45 -230h-62l19 152h-623l-102 -529h479l39 152h61l-74 -381h-61l20 152h-479l-131 -672h623l39 151h61l-43 -229h-782l22 117q-131 -131 -436 -131q-267 0 -367 94.5t-61 296.5zM346 205.5 q22 -74.5 103.5 -106t248.5 -31.5q166 0 261.5 33t144 103t72.5 199l120 627q37 187 -39.5 261.5t-308.5 74.5q-231 0 -335.5 -74.5t-139.5 -261.5l-121 -627q-28 -123 -6 -197.5z" />
<glyph unicode="&#x153;" horiz-adv-x="1667" d="M219 283l80 405q30 154 132.5 225.5t305.5 71.5q150 0 223 -38t87 -118q85 156 339 156q185 0 254 -72.5t39 -224.5l-45 -235h-618l-29 -150q-24 -126 23 -184t194 -58q161 0 283 66l47 176h70l-43 -219q-61 -42 -157.5 -70t-215.5 -28q-130 0 -196.5 37.5t-78.5 115.5 q-45 -78 -132 -115.5t-236 -37.5q-203 0 -279.5 71.5t-46.5 225.5zM307 303q-25 -127 27.5 -184.5t222.5 -57.5q116 0 187.5 28t106 79t50.5 135l72 365q25 127 -27.5 184t-222.5 57q-116 0 -187.5 -28t-106 -78.5t-50.5 -134.5zM1030 524h535l28 144q24 125 -24 183 t-197 58q-148 0 -218.5 -58t-94.5 -183z" />
<glyph unicode="&#x178;" horiz-adv-x="1226" d="M307 1372l12 62h338l-12 -62l-129 -8l209 -762l555 832h184l-12 -62l-123 -8l-581 -872l-82 -422l141 -9l-12 -61h-371l12 61l142 9l81 422l-241 872zM754 1661q0 26 21 45.5t48 19.5q20 0 33.5 -14.5t13.5 -34.5q0 -26 -21 -45.5t-48 -19.5q-20 0 -33.5 14.5t-13.5 34.5 zM1004 1661q0 26 21 45.5t48 19.5q20 0 33.5 -14.5t13.5 -34.5q0 -26 -21 -45.5t-48 -19.5q-20 0 -33.5 14.5t-13.5 34.5z" />
<glyph unicode="&#x2c6;" horiz-adv-x="684" d="M348 1159l236 162h28l174 -162l-38 -41l-150 137l-221 -147z" />
<glyph unicode="&#x2dc;" horiz-adv-x="749" d="M354 1188q43 58 81.5 88.5t80.5 30.5q37 0 82 -29l66 -43q34 -18 55 -18q41 0 104 83l49 -38q-90 -117 -163 -117q-38 0 -80 29h2l-78 47q-17 12 -49 12q-24 0 -48 -20t-57 -62z" />
<glyph unicode="&#x2000;" horiz-adv-x="960" />
<glyph unicode="&#x2001;" horiz-adv-x="1921" />
<glyph unicode="&#x2002;" horiz-adv-x="960" />
<glyph unicode="&#x2003;" horiz-adv-x="1921" />
<glyph unicode="&#x2004;" horiz-adv-x="640" />
<glyph unicode="&#x2005;" horiz-adv-x="480" />
<glyph unicode="&#x2006;" horiz-adv-x="320" />
<glyph unicode="&#x2007;" horiz-adv-x="320" />
<glyph unicode="&#x2008;" horiz-adv-x="240" />
<glyph unicode="&#x2009;" horiz-adv-x="384" />
<glyph unicode="&#x200a;" horiz-adv-x="106" />
<glyph unicode="&#x2010;" horiz-adv-x="841" d="M211 451l14 71h596l-14 -71h-596z" />
<glyph unicode="&#x2011;" horiz-adv-x="841" d="M211 451l14 71h596l-14 -71h-596z" />
<glyph unicode="&#x2012;" horiz-adv-x="841" d="M211 451l14 71h596l-14 -71h-596z" />
<glyph unicode="&#x2013;" horiz-adv-x="1005" d="M211 451l14 71h760l-14 -71h-760z" />
<glyph unicode="&#x2014;" horiz-adv-x="1169" d="M211 451l14 71h924l-14 -71h-924z" />
<glyph unicode="&#x2018;" horiz-adv-x="405" d="M338 1110l164 324h59l-125 -324h-98z" />
<glyph unicode="&#x2019;" horiz-adv-x="405" d="M338 1110l125 324h98l-164 -324h-59z" />
<glyph unicode="&#x201a;" horiz-adv-x="405" d="M86 -193l125 324h98l-164 -324h-59z" />
<glyph unicode="&#x201c;" horiz-adv-x="591" d="M338 1110l164 324h59l-125 -324h-98zM524 1110l164 324h60l-125 -324h-99z" />
<glyph unicode="&#x201d;" horiz-adv-x="602" d="M338 1110l125 324h98l-164 -324h-59zM535 1110l124 324h99l-164 -324h-59z" />
<glyph unicode="&#x201e;" horiz-adv-x="602" d="M86 -195l125 324h98l-164 -324h-59zM283 -195l125 324h98l-164 -324h-59z" />
<glyph unicode="&#x2022;" horiz-adv-x="497" d="M215 465q0 59 46.5 103t105.5 44q45 0 74.5 -30.5t29.5 -75.5q0 -59 -47 -102.5t-107 -43.5q-45 0 -73.5 30t-28.5 75z" />
<glyph unicode="&#x2026;" horiz-adv-x="1255" d="M133 45q0 35 26 60.5t60 25.5q27 0 44.5 -17.5t17.5 -43.5q0 -35 -27 -59.5t-61 -24.5q-27 0 -43.5 16t-16.5 43zM565 45q0 35 26 60.5t60 25.5q27 0 44.5 -17.5t17.5 -43.5q0 -35 -27 -59.5t-61 -24.5q-27 0 -43.5 16t-16.5 43zM997 45q0 35 26 60.5t60 25.5 q27 0 44.5 -17.5t17.5 -43.5q0 -35 -27 -59.5t-61 -24.5q-27 0 -43.5 16t-16.5 43z" />
<glyph unicode="&#x202f;" horiz-adv-x="384" />
<glyph unicode="&#x2039;" horiz-adv-x="622" d="M211 457l10 53l385 358l62 -63l-357 -334l217 -319l-71 -54z" />
<glyph unicode="&#x203a;" horiz-adv-x="622" d="M143 162l355 332l-217 321l71 53l246 -358l-10 -53l-385 -359z" />
<glyph unicode="&#x205f;" horiz-adv-x="480" />
<glyph unicode="&#x20ac;" horiz-adv-x="1300" d="M174 471l14 72h205l49 256h-204l14 71h205l37 187q40 198 171.5 294.5t358.5 96.5q226 0 310 -95.5t50 -295.5l-4 -25l-98 -41l8 39q38 184 -28 260t-256 76t-291 -76t-137 -260l-31 -160h545l-15 -71h-545l-49 -256h545l-14 -72h-545l-12 -68q-33 -182 37 -258.5 t258 -76.5q213 0 385 102l49 184h61l-45 -229q-205 -139 -469 -139q-449 0 -373 391l19 94h-205z" />
<glyph unicode="&#x2122;" horiz-adv-x="1419" d="M123 1368v66h522v-66h-225v-682h-72v682h-225zM745 686v748h68l211 -441l205 441h67v-748h-67v580l-174 -365h-68l-170 365v-580h-72z" />
<glyph unicode="&#x25fc;" horiz-adv-x="972" d="M0 0v973h973v-973h-973z" />
<glyph unicode="&#xfb01;" horiz-adv-x="1193" d="M-80 -512l43 219h60l-19 -141q49 2 82 9t63.5 25t49.5 53.5t30 90.5l226 1155h-158l14 72h158l45 227q11 59 34.5 101.5t53 68.5t71 41t82.5 20t95 5h51l-43 -220h-59l18 142q-49 -2 -82 -9t-63.5 -25t-49.5 -53.5t-30 -90.5l-41 -207h571l-176 -903l137 -9l-12 -59h-356 l12 59l137 9l162 831h-489l-230 -1175q-11 -59 -34.5 -101.5t-53 -68.5t-71 -41t-82.5 -20t-95 -5h-51zM1087 1362q0 35 26.5 60.5t60.5 25.5q27 0 44 -17.5t17 -44.5q0 -34 -26.5 -58.5t-61.5 -24.5q-27 0 -43.5 16.5t-16.5 42.5z" />
<glyph unicode="&#xfb02;" horiz-adv-x="1193" d="M-80 -512l43 219h60l-19 -141q49 2 82 9t63.5 25t49.5 53.5t30 90.5l226 1155h-158l14 72h158l45 227q11 59 34.5 101.5t53 68.5t71 41t82.5 20t95 5h72q38 0 67.5 -2.5t59.5 -9t50.5 -18t39 -29t25.5 -42.5t10.5 -58.5t-7.5 -76.5l-219 -1130l135 -9l-12 -59h-356l12 59 l139 9l215 1110q7 34 6.5 60.5t-5.5 45t-17.5 31.5t-27.5 21t-38 12.5t-45 6t-53 1.5h-61q-44 0 -74 -3.5t-60.5 -14t-51 -29.5t-37 -52t-25.5 -79l-41 -207h233l-14 -72h-233l-230 -1175q-11 -59 -34.5 -101.5t-53 -68.5t-71 -41t-82.5 -20t-95 -5h-51z" />
</font>
</defs>
</svg>
